STARTFONT 2.1
FONT -FontForge-Unibody8Pro-Normal-R-Normal--16-150-75-75-P-134-ISO10646-1
SIZE 15 75 75
FONTBOUNDINGBOX 28 26 0 -6
COMMENT "Generated by fontforge, http://fontforge.sourceforge.net"
COMMENT "Copyright (c) Underware, Den Haag (NL). All rights reserved."
STARTPROPERTIES 40
FOUNDRY "FontForge"
FAMILY_NAME "Unibody8Pro"
WEIGHT_NAME "Normal"
SLANT "R"
SETWIDTH_NAME "Normal"
ADD_STYLE_NAME ""
PIXEL_SIZE 16
POINT_SIZE 150
RESOLUTION_X 75
RESOLUTION_Y 75
SPACING "P"
AVERAGE_WIDTH 134
CHARSET_REGISTRY "ISO10646"
CHARSET_ENCODING "1"
FONTNAME_REGISTRY ""
CHARSET_COLLECTIONS "ISO8859-2 ISO8859-9 ISO8859-4 ISO10646-1"
FONT_NAME "Unibody8Pro-Regular"
FACE_NAME "Unibody 8 Pro Regular"
COPYRIGHT "Copyright (c) Underware, Den Haag (NL). All rights reserved."
FONT_VERSION "2.000 (downloaded from www.underware.nl)"
FONT_ASCENT 13
FONT_DESCENT 3
UNDERLINE_POSITION -3
UNDERLINE_THICKNESS 2
X_HEIGHT 9
CAP_HEIGHT 13
RAW_ASCENT 800
RAW_DESCENT 200
NORM_SPACE 6
RELATIVE_WEIGHT 40
RELATIVE_SETWIDTH 50
SUPERSCRIPT_X 0
SUPERSCRIPT_Y 5
SUPERSCRIPT_SIZE 9
SUBSCRIPT_X 0
SUBSCRIPT_Y 1
SUBSCRIPT_SIZE 9
FIGURE_WIDTH 14
AVG_LOWERCASE_WIDTH 132
AVG_UPPERCASE_WIDTH 139
ENDPROPERTIES
CHARS 438
STARTCHAR space
ENCODING 32
SWIDTH 375 0
DWIDTH 6 0
BBX 1 1 0 0
BITMAP
00
ENDCHAR
STARTCHAR exclam
ENCODING 33
SWIDTH 500 0
DWIDTH 8 0
BBX 2 16 4 0
BITMAP
C0
C0
C0
C0
C0
C0
C0
C0
C0
C0
00
00
C0
C0
C0
C0
ENDCHAR
STARTCHAR quotedbl
ENCODING 34
SWIDTH 750 0
DWIDTH 12 0
BBX 8 6 2 10
BITMAP
C3
C3
C3
C3
C3
C3
ENDCHAR
STARTCHAR numbersign
ENCODING 35
SWIDTH 875 0
DWIDTH 14 0
BBX 10 12 2 2
BITMAP
3300
3300
FFC0
FFC0
3300
3300
3300
3300
FFC0
FFC0
3300
3300
ENDCHAR
STARTCHAR dollar
ENCODING 36
SWIDTH 875 0
DWIDTH 14 0
BBX 10 22 2 -4
BITMAP
0C00
0C00
0C00
0C00
3FC0
3FC0
C000
C000
C000
C000
3F00
3F00
00C0
00C0
00C0
00C0
FF00
FF00
0C00
0C00
0C00
0C00
ENDCHAR
STARTCHAR percent
ENCODING 37
SWIDTH 875 0
DWIDTH 14 0
BBX 10 14 2 0
BITMAP
F0C0
F0C0
C0C0
C0C0
0300
0300
0C00
0C00
3000
3000
C0C0
C0C0
C3C0
C3C0
ENDCHAR
STARTCHAR ampersand
ENCODING 38
SWIDTH 1000 0
DWIDTH 16 0
BBX 14 14 2 0
BITMAP
3F00
3F00
C000
C000
C000
C000
3CFC
3CFC
C0C0
C0C0
C0C0
C0C0
3F00
3F00
ENDCHAR
STARTCHAR quotesingle
ENCODING 39
SWIDTH 375 0
DWIDTH 6 0
BBX 2 6 2 10
BITMAP
C0
C0
C0
C0
C0
C0
ENDCHAR
STARTCHAR parenleft
ENCODING 40
SWIDTH 625 0
DWIDTH 10 0
BBX 6 20 2 -4
BITMAP
0C
0C
30
30
C0
C0
C0
C0
C0
C0
C0
C0
C0
C0
C0
C0
30
30
0C
0C
ENDCHAR
STARTCHAR parenright
ENCODING 41
SWIDTH 625 0
DWIDTH 10 0
BBX 6 20 2 -4
BITMAP
C0
C0
30
30
0C
0C
0C
0C
0C
0C
0C
0C
0C
0C
0C
0C
30
30
C0
C0
ENDCHAR
STARTCHAR asterisk
ENCODING 42
SWIDTH 1125 0
DWIDTH 18 0
BBX 14 12 2 4
BITMAP
0300
0300
0300
0300
FFFC
FFFC
0FC0
0FC0
0CC0
0CC0
3030
3030
ENDCHAR
STARTCHAR plus
ENCODING 43
SWIDTH 875 0
DWIDTH 14 0
BBX 10 10 2 2
BITMAP
0C00
0C00
0C00
0C00
FFC0
FFC0
0C00
0C00
0C00
0C00
ENDCHAR
STARTCHAR comma
ENCODING 44
SWIDTH 500 0
DWIDTH 8 0
BBX 6 8 0 -4
BITMAP
0C
0C
0C
0C
0C
0C
F0
F0
ENDCHAR
STARTCHAR hyphen
ENCODING 45
SWIDTH 750 0
DWIDTH 12 0
BBX 8 2 2 4
BITMAP
FF
FF
ENDCHAR
STARTCHAR period
ENCODING 46
SWIDTH 500 0
DWIDTH 8 0
BBX 2 4 4 0
BITMAP
C0
C0
C0
C0
ENDCHAR
STARTCHAR slash
ENCODING 47
SWIDTH 875 0
DWIDTH 14 0
BBX 10 14 2 0
BITMAP
00C0
00C0
00C0
00C0
0300
0300
0C00
0C00
3000
3000
C000
C000
C000
C000
ENDCHAR
STARTCHAR zero
ENCODING 48
SWIDTH 875 0
DWIDTH 14 0
BBX 10 14 2 0
BITMAP
3F00
3F00
C0C0
C0C0
F0C0
F0C0
CCC0
CCC0
C3C0
C3C0
C0C0
C0C0
3F00
3F00
ENDCHAR
STARTCHAR one
ENCODING 49
SWIDTH 875 0
DWIDTH 14 0
BBX 10 14 2 0
BITMAP
FC00
FC00
0C00
0C00
0C00
0C00
0C00
0C00
0C00
0C00
0C00
0C00
FFC0
FFC0
ENDCHAR
STARTCHAR two
ENCODING 50
SWIDTH 875 0
DWIDTH 14 0
BBX 10 14 2 0
BITMAP
FF00
FF00
00C0
00C0
00C0
00C0
0F00
0F00
3000
3000
C000
C000
FFC0
FFC0
ENDCHAR
STARTCHAR three
ENCODING 51
SWIDTH 875 0
DWIDTH 14 0
BBX 10 14 2 0
BITMAP
FFC0
FFC0
0300
0300
0C00
0C00
3F00
3F00
00C0
00C0
00C0
00C0
FF00
FF00
ENDCHAR
STARTCHAR four
ENCODING 52
SWIDTH 875 0
DWIDTH 14 0
BBX 10 14 2 0
BITMAP
03C0
03C0
0CC0
0CC0
30C0
30C0
C0C0
C0C0
FFC0
FFC0
00C0
00C0
00C0
00C0
ENDCHAR
STARTCHAR five
ENCODING 53
SWIDTH 875 0
DWIDTH 14 0
BBX 10 14 2 0
BITMAP
FFC0
FFC0
C000
C000
C000
C000
FF00
FF00
00C0
00C0
00C0
00C0
FF00
FF00
ENDCHAR
STARTCHAR six
ENCODING 54
SWIDTH 875 0
DWIDTH 14 0
BBX 10 14 2 0
BITMAP
0FC0
0FC0
3000
3000
C000
C000
FF00
FF00
C0C0
C0C0
C0C0
C0C0
3F00
3F00
ENDCHAR
STARTCHAR seven
ENCODING 55
SWIDTH 875 0
DWIDTH 14 0
BBX 10 14 2 0
BITMAP
FFC0
FFC0
00C0
00C0
0300
0300
0C00
0C00
3000
3000
3000
3000
3000
3000
ENDCHAR
STARTCHAR eight
ENCODING 56
SWIDTH 875 0
DWIDTH 14 0
BBX 10 14 2 0
BITMAP
3F00
3F00
C0C0
C0C0
C0C0
C0C0
3F00
3F00
C0C0
C0C0
C0C0
C0C0
3F00
3F00
ENDCHAR
STARTCHAR nine
ENCODING 57
SWIDTH 875 0
DWIDTH 14 0
BBX 10 14 2 0
BITMAP
3F00
3F00
C0C0
C0C0
C0C0
C0C0
3FC0
3FC0
00C0
00C0
0300
0300
FC00
FC00
ENDCHAR
STARTCHAR colon
ENCODING 58
SWIDTH 500 0
DWIDTH 8 0
BBX 2 10 4 0
BITMAP
C0
C0
C0
C0
00
00
C0
C0
C0
C0
ENDCHAR
STARTCHAR semicolon
ENCODING 59
SWIDTH 500 0
DWIDTH 8 0
BBX 6 14 0 -4
BITMAP
0C
0C
0C
0C
00
00
0C
0C
0C
0C
0C
0C
F0
F0
ENDCHAR
STARTCHAR less
ENCODING 60
SWIDTH 875 0
DWIDTH 14 0
BBX 10 14 2 0
BITMAP
03C0
03C0
0C00
0C00
3000
3000
C000
C000
3000
3000
0C00
0C00
03C0
03C0
ENDCHAR
STARTCHAR equal
ENCODING 61
SWIDTH 875 0
DWIDTH 14 0
BBX 10 6 2 4
BITMAP
FFC0
FFC0
0000
0000
FFC0
FFC0
ENDCHAR
STARTCHAR greater
ENCODING 62
SWIDTH 875 0
DWIDTH 14 0
BBX 10 14 2 0
BITMAP
F000
F000
0C00
0C00
0300
0300
00C0
00C0
0300
0300
0C00
0C00
F000
F000
ENDCHAR
STARTCHAR question
ENCODING 63
SWIDTH 750 0
DWIDTH 12 0
BBX 8 16 2 0
BITMAP
FC
FC
03
03
03
03
0C
0C
30
30
00
00
30
30
30
30
ENDCHAR
STARTCHAR at
ENCODING 64
SWIDTH 1125 0
DWIDTH 18 0
BBX 14 14 2 -2
BITMAP
3FF0
3FF0
C3FC
C3FC
C3FC
C3FC
C3FC
C3FC
C3F0
C3F0
C000
C000
3FF0
3FF0
ENDCHAR
STARTCHAR A
ENCODING 65
SWIDTH 875 0
DWIDTH 14 0
BBX 10 14 2 0
BITMAP
3F00
3F00
C0C0
C0C0
C0C0
C0C0
C0C0
C0C0
FFC0
FFC0
C0C0
C0C0
C0C0
C0C0
ENDCHAR
STARTCHAR B
ENCODING 66
SWIDTH 875 0
DWIDTH 14 0
BBX 10 14 2 0
BITMAP
FF00
FF00
C0C0
C0C0
C0C0
C0C0
FF00
FF00
C0C0
C0C0
C0C0
C0C0
FF00
FF00
ENDCHAR
STARTCHAR C
ENCODING 67
SWIDTH 875 0
DWIDTH 14 0
BBX 10 14 2 0
BITMAP
3FC0
3FC0
C0C0
C0C0
C000
C000
C000
C000
C000
C000
C000
C000
3FC0
3FC0
ENDCHAR
STARTCHAR D
ENCODING 68
SWIDTH 875 0
DWIDTH 14 0
BBX 10 14 2 0
BITMAP
FC00
FC00
C300
C300
C0C0
C0C0
C0C0
C0C0
C0C0
C0C0
C300
C300
FC00
FC00
ENDCHAR
STARTCHAR E
ENCODING 69
SWIDTH 875 0
DWIDTH 14 0
BBX 10 14 2 0
BITMAP
FFC0
FFC0
C000
C000
C000
C000
FF00
FF00
C000
C000
C000
C000
FFC0
FFC0
ENDCHAR
STARTCHAR F
ENCODING 70
SWIDTH 750 0
DWIDTH 12 0
BBX 10 14 2 0
BITMAP
FFC0
FFC0
C000
C000
C000
C000
FF00
FF00
C000
C000
C000
C000
C000
C000
ENDCHAR
STARTCHAR G
ENCODING 71
SWIDTH 875 0
DWIDTH 14 0
BBX 10 14 2 0
BITMAP
3FC0
3FC0
C000
C000
C000
C000
C000
C000
C3C0
C3C0
C0C0
C0C0
3F00
3F00
ENDCHAR
STARTCHAR H
ENCODING 72
SWIDTH 875 0
DWIDTH 14 0
BBX 10 14 2 0
BITMAP
C0C0
C0C0
C0C0
C0C0
C0C0
C0C0
FFC0
FFC0
C0C0
C0C0
C0C0
C0C0
C0C0
C0C0
ENDCHAR
STARTCHAR I
ENCODING 73
SWIDTH 625 0
DWIDTH 10 0
BBX 6 14 2 0
BITMAP
FC
FC
30
30
30
30
30
30
30
30
30
30
FC
FC
ENDCHAR
STARTCHAR J
ENCODING 74
SWIDTH 875 0
DWIDTH 14 0
BBX 10 14 2 0
BITMAP
3FC0
3FC0
00C0
00C0
00C0
00C0
00C0
00C0
C0C0
C0C0
C0C0
C0C0
3F00
3F00
ENDCHAR
STARTCHAR K
ENCODING 75
SWIDTH 875 0
DWIDTH 14 0
BBX 10 14 2 0
BITMAP
C0C0
C0C0
C0C0
C0C0
C300
C300
FC00
FC00
C300
C300
C0C0
C0C0
C0C0
C0C0
ENDCHAR
STARTCHAR L
ENCODING 76
SWIDTH 750 0
DWIDTH 12 0
BBX 10 14 2 0
BITMAP
C000
C000
C000
C000
C000
C000
C000
C000
C000
C000
C000
C000
FFC0
FFC0
ENDCHAR
STARTCHAR M
ENCODING 77
SWIDTH 1125 0
DWIDTH 18 0
BBX 14 14 2 0
BITMAP
C00C
C00C
C00C
C00C
F03C
F03C
CCCC
CCCC
C30C
C30C
C00C
C00C
C00C
C00C
ENDCHAR
STARTCHAR N
ENCODING 78
SWIDTH 875 0
DWIDTH 14 0
BBX 10 14 2 0
BITMAP
C0C0
C0C0
C0C0
C0C0
F0C0
F0C0
CCC0
CCC0
C3C0
C3C0
C0C0
C0C0
C0C0
C0C0
ENDCHAR
STARTCHAR O
ENCODING 79
SWIDTH 875 0
DWIDTH 14 0
BBX 10 14 2 0
BITMAP
3F00
3F00
C0C0
C0C0
C0C0
C0C0
C0C0
C0C0
C0C0
C0C0
C0C0
C0C0
3F00
3F00
ENDCHAR
STARTCHAR P
ENCODING 80
SWIDTH 875 0
DWIDTH 14 0
BBX 10 14 2 0
BITMAP
FF00
FF00
C0C0
C0C0
C0C0
C0C0
FF00
FF00
C000
C000
C000
C000
C000
C000
ENDCHAR
STARTCHAR Q
ENCODING 81
SWIDTH 875 0
DWIDTH 14 0
BBX 14 18 2 -4
BITMAP
3F00
3F00
C0C0
C0C0
C0C0
C0C0
C0C0
C0C0
C0C0
C0C0
C0C0
C0C0
3F00
3F00
0300
0300
00FC
00FC
ENDCHAR
STARTCHAR R
ENCODING 82
SWIDTH 875 0
DWIDTH 14 0
BBX 10 14 2 0
BITMAP
FF00
FF00
C0C0
C0C0
C0C0
C0C0
FF00
FF00
CC00
CC00
C300
C300
C0C0
C0C0
ENDCHAR
STARTCHAR S
ENCODING 83
SWIDTH 875 0
DWIDTH 14 0
BBX 10 14 2 0
BITMAP
3FC0
3FC0
C000
C000
C000
C000
3F00
3F00
00C0
00C0
00C0
00C0
FF00
FF00
ENDCHAR
STARTCHAR T
ENCODING 84
SWIDTH 625 0
DWIDTH 10 0
BBX 10 14 0 0
BITMAP
FFC0
FFC0
0C00
0C00
0C00
0C00
0C00
0C00
0C00
0C00
0C00
0C00
0C00
0C00
ENDCHAR
STARTCHAR U
ENCODING 85
SWIDTH 875 0
DWIDTH 14 0
BBX 10 14 2 0
BITMAP
C0C0
C0C0
C0C0
C0C0
C0C0
C0C0
C0C0
C0C0
C0C0
C0C0
C0C0
C0C0
3F00
3F00
ENDCHAR
STARTCHAR V
ENCODING 86
SWIDTH 875 0
DWIDTH 14 0
BBX 10 14 2 0
BITMAP
C0C0
C0C0
C0C0
C0C0
C0C0
C0C0
C0C0
C0C0
C0C0
C0C0
3300
3300
0C00
0C00
ENDCHAR
STARTCHAR W
ENCODING 87
SWIDTH 1125 0
DWIDTH 18 0
BBX 14 14 2 0
BITMAP
C00C
C00C
C00C
C00C
C00C
C00C
C30C
C30C
CCCC
CCCC
F03C
F03C
C00C
C00C
ENDCHAR
STARTCHAR X
ENCODING 88
SWIDTH 875 0
DWIDTH 14 0
BBX 10 14 2 0
BITMAP
C0C0
C0C0
C0C0
C0C0
3300
3300
0C00
0C00
3300
3300
C0C0
C0C0
C0C0
C0C0
ENDCHAR
STARTCHAR Y
ENCODING 89
SWIDTH 875 0
DWIDTH 14 0
BBX 10 14 2 0
BITMAP
C0C0
C0C0
C0C0
C0C0
3300
3300
0C00
0C00
0C00
0C00
0C00
0C00
0C00
0C00
ENDCHAR
STARTCHAR Z
ENCODING 90
SWIDTH 875 0
DWIDTH 14 0
BBX 10 14 2 0
BITMAP
FFC0
FFC0
00C0
00C0
0300
0300
0C00
0C00
3000
3000
C000
C000
FFC0
FFC0
ENDCHAR
STARTCHAR bracketleft
ENCODING 91
SWIDTH 750 0
DWIDTH 12 0
BBX 8 20 2 -4
BITMAP
FF
FF
C0
C0
C0
C0
C0
C0
C0
C0
C0
C0
C0
C0
C0
C0
C0
C0
FF
FF
ENDCHAR
STARTCHAR backslash
ENCODING 92
SWIDTH 875 0
DWIDTH 14 0
BBX 10 14 2 0
BITMAP
C000
C000
C000
C000
3000
3000
0C00
0C00
0300
0300
00C0
00C0
00C0
00C0
ENDCHAR
STARTCHAR bracketright
ENCODING 93
SWIDTH 750 0
DWIDTH 12 0
BBX 8 20 2 -4
BITMAP
FF
FF
03
03
03
03
03
03
03
03
03
03
03
03
03
03
03
03
FF
FF
ENDCHAR
STARTCHAR asciicircum
ENCODING 94
SWIDTH 875 0
DWIDTH 14 0
BBX 10 6 2 10
BITMAP
0C00
0C00
3300
3300
C0C0
C0C0
ENDCHAR
STARTCHAR underscore
ENCODING 95
SWIDTH 625 0
DWIDTH 10 0
BBX 10 2 0 0
BITMAP
FFC0
FFC0
ENDCHAR
STARTCHAR grave
ENCODING 96
SWIDTH 500 0
DWIDTH 8 0
BBX 4 4 2 14
BITMAP
C0
C0
30
30
ENDCHAR
STARTCHAR a
ENCODING 97
SWIDTH 875 0
DWIDTH 14 0
BBX 10 10 2 0
BITMAP
3F00
3F00
00C0
00C0
3FC0
3FC0
C0C0
C0C0
3FC0
3FC0
ENDCHAR
STARTCHAR b
ENCODING 98
SWIDTH 875 0
DWIDTH 14 0
BBX 10 16 2 0
BITMAP
C000
C000
C000
C000
C000
C000
FF00
FF00
C0C0
C0C0
C0C0
C0C0
C0C0
C0C0
FF00
FF00
ENDCHAR
STARTCHAR c
ENCODING 99
SWIDTH 875 0
DWIDTH 14 0
BBX 10 10 2 0
BITMAP
3FC0
3FC0
C000
C000
C000
C000
C000
C000
3FC0
3FC0
ENDCHAR
STARTCHAR d
ENCODING 100
SWIDTH 875 0
DWIDTH 14 0
BBX 10 16 2 0
BITMAP
00C0
00C0
00C0
00C0
00C0
00C0
3FC0
3FC0
C0C0
C0C0
C0C0
C0C0
C0C0
C0C0
3FC0
3FC0
ENDCHAR
STARTCHAR e
ENCODING 101
SWIDTH 875 0
DWIDTH 14 0
BBX 10 10 2 0
BITMAP
3F00
3F00
C0C0
C0C0
FFC0
FFC0
C000
C000
3FC0
3FC0
ENDCHAR
STARTCHAR f
ENCODING 102
SWIDTH 625 0
DWIDTH 10 0
BBX 12 16 0 0
BITMAP
03F0
03F0
0C00
0C00
0C00
0C00
FFC0
FFC0
0C00
0C00
0C00
0C00
0C00
0C00
0C00
0C00
ENDCHAR
STARTCHAR g
ENCODING 103
SWIDTH 875 0
DWIDTH 14 0
BBX 10 14 2 -4
BITMAP
3FC0
3FC0
C0C0
C0C0
C0C0
C0C0
C0C0
C0C0
3FC0
3FC0
00C0
00C0
FF00
FF00
ENDCHAR
STARTCHAR h
ENCODING 104
SWIDTH 875 0
DWIDTH 14 0
BBX 10 16 2 0
BITMAP
C000
C000
C000
C000
C000
C000
FF00
FF00
C0C0
C0C0
C0C0
C0C0
C0C0
C0C0
C0C0
C0C0
ENDCHAR
STARTCHAR i
ENCODING 105
SWIDTH 375 0
DWIDTH 6 0
BBX 2 16 2 0
BITMAP
C0
C0
00
00
00
00
C0
C0
C0
C0
C0
C0
C0
C0
C0
C0
ENDCHAR
STARTCHAR j
ENCODING 106
SWIDTH 375 0
DWIDTH 6 0
BBX 4 20 0 -4
BITMAP
30
30
00
00
00
00
30
30
30
30
30
30
30
30
30
30
30
30
C0
C0
ENDCHAR
STARTCHAR k
ENCODING 107
SWIDTH 875 0
DWIDTH 14 0
BBX 10 16 2 0
BITMAP
C000
C000
C000
C000
C000
C000
C300
C300
CC00
CC00
FC00
FC00
C300
C300
C0C0
C0C0
ENDCHAR
STARTCHAR l
ENCODING 108
SWIDTH 500 0
DWIDTH 8 0
BBX 6 16 2 0
BITMAP
C0
C0
C0
C0
C0
C0
C0
C0
C0
C0
C0
C0
C0
C0
3C
3C
ENDCHAR
STARTCHAR m
ENCODING 109
SWIDTH 1125 0
DWIDTH 18 0
BBX 14 10 2 0
BITMAP
FFF0
FFF0
C30C
C30C
C30C
C30C
C30C
C30C
C30C
C30C
ENDCHAR
STARTCHAR n
ENCODING 110
SWIDTH 875 0
DWIDTH 14 0
BBX 10 10 2 0
BITMAP
FF00
FF00
C0C0
C0C0
C0C0
C0C0
C0C0
C0C0
C0C0
C0C0
ENDCHAR
STARTCHAR o
ENCODING 111
SWIDTH 875 0
DWIDTH 14 0
BBX 10 10 2 0
BITMAP
3F00
3F00
C0C0
C0C0
C0C0
C0C0
C0C0
C0C0
3F00
3F00
ENDCHAR
STARTCHAR p
ENCODING 112
SWIDTH 875 0
DWIDTH 14 0
BBX 10 14 2 -4
BITMAP
FF00
FF00
C0C0
C0C0
C0C0
C0C0
C0C0
C0C0
FF00
FF00
C000
C000
C000
C000
ENDCHAR
STARTCHAR q
ENCODING 113
SWIDTH 875 0
DWIDTH 14 0
BBX 10 14 2 -4
BITMAP
3FC0
3FC0
C0C0
C0C0
C0C0
C0C0
C0C0
C0C0
3FC0
3FC0
00C0
00C0
00C0
00C0
ENDCHAR
STARTCHAR r
ENCODING 114
SWIDTH 625 0
DWIDTH 10 0
BBX 8 10 2 0
BITMAP
CF
CF
F0
F0
C0
C0
C0
C0
C0
C0
ENDCHAR
STARTCHAR s
ENCODING 115
SWIDTH 750 0
DWIDTH 12 0
BBX 8 10 2 0
BITMAP
3F
3F
C0
C0
3C
3C
03
03
FC
FC
ENDCHAR
STARTCHAR t
ENCODING 116
SWIDTH 750 0
DWIDTH 12 0
BBX 8 14 2 0
BITMAP
C0
C0
C0
C0
FF
FF
C0
C0
C0
C0
C0
C0
3F
3F
ENDCHAR
STARTCHAR u
ENCODING 117
SWIDTH 875 0
DWIDTH 14 0
BBX 10 10 2 0
BITMAP
C0C0
C0C0
C0C0
C0C0
C0C0
C0C0
C0C0
C0C0
3FC0
3FC0
ENDCHAR
STARTCHAR v
ENCODING 118
SWIDTH 875 0
DWIDTH 14 0
BBX 10 10 2 0
BITMAP
C0C0
C0C0
C0C0
C0C0
C0C0
C0C0
3300
3300
0C00
0C00
ENDCHAR
STARTCHAR w
ENCODING 119
SWIDTH 1125 0
DWIDTH 18 0
BBX 14 10 2 0
BITMAP
C00C
C00C
C30C
C30C
C30C
C30C
CCCC
CCCC
3030
3030
ENDCHAR
STARTCHAR x
ENCODING 120
SWIDTH 875 0
DWIDTH 14 0
BBX 10 10 2 0
BITMAP
C0C0
C0C0
C0C0
C0C0
3F00
3F00
C0C0
C0C0
C0C0
C0C0
ENDCHAR
STARTCHAR y
ENCODING 121
SWIDTH 875 0
DWIDTH 14 0
BBX 12 14 0 -4
BITMAP
3030
3030
3030
3030
3030
3030
0CC0
0CC0
0300
0300
0C00
0C00
F000
F000
ENDCHAR
STARTCHAR z
ENCODING 122
SWIDTH 875 0
DWIDTH 14 0
BBX 10 10 2 0
BITMAP
FFC0
FFC0
0300
0300
0C00
0C00
3000
3000
FFC0
FFC0
ENDCHAR
STARTCHAR braceleft
ENCODING 123
SWIDTH 875 0
DWIDTH 14 0
BBX 12 20 0 -4
BITMAP
03F0
03F0
0C00
0C00
0C00
0C00
0C00
0C00
F000
F000
0C00
0C00
0C00
0C00
0C00
0C00
0C00
0C00
03F0
03F0
ENDCHAR
STARTCHAR bar
ENCODING 124
SWIDTH 375 0
DWIDTH 6 0
BBX 2 20 2 -4
BITMAP
C0
C0
C0
C0
C0
C0
C0
C0
C0
C0
C0
C0
C0
C0
C0
C0
C0
C0
C0
C0
ENDCHAR
STARTCHAR braceright
ENCODING 125
SWIDTH 875 0
DWIDTH 14 0
BBX 12 20 2 -4
BITMAP
FC00
FC00
0300
0300
0300
0300
0300
0300
00F0
00F0
0300
0300
0300
0300
0300
0300
0300
0300
FC00
FC00
ENDCHAR
STARTCHAR asciitilde
ENCODING 126
SWIDTH 875 0
DWIDTH 14 0
BBX 10 4 2 14
BITMAP
3CC0
3CC0
CF00
CF00
ENDCHAR
STARTCHAR uni00A0
ENCODING 160
SWIDTH 375 0
DWIDTH 6 0
BBX 1 1 0 0
BITMAP
00
ENDCHAR
STARTCHAR exclamdown
ENCODING 161
SWIDTH 500 0
DWIDTH 8 0
BBX 2 16 2 -4
BITMAP
C0
C0
C0
C0
00
00
C0
C0
C0
C0
C0
C0
C0
C0
C0
C0
ENDCHAR
STARTCHAR cent
ENCODING 162
SWIDTH 875 0
DWIDTH 14 0
BBX 10 18 2 -4
BITMAP
0C00
0C00
0C00
0C00
3FC0
3FC0
C000
C000
C000
C000
C000
C000
3FC0
3FC0
0C00
0C00
0C00
0C00
ENDCHAR
STARTCHAR sterling
ENCODING 163
SWIDTH 875 0
DWIDTH 14 0
BBX 12 14 0 0
BITMAP
0FF0
0FF0
3000
3000
3000
3000
3F00
3F00
3000
3000
3030
3030
FFC0
FFC0
ENDCHAR
STARTCHAR currency
ENCODING 164
SWIDTH 875 0
DWIDTH 14 0
BBX 12 14 0 0
BITMAP
03F0
03F0
0C00
0C00
0C00
0C00
FFC0
FFC0
0C00
0C00
0C00
0C00
03F0
03F0
ENDCHAR
STARTCHAR yen
ENCODING 165
SWIDTH 875 0
DWIDTH 14 0
BBX 10 14 2 0
BITMAP
C0C0
C0C0
3300
3300
0C00
0C00
0C00
0C00
FFC0
FFC0
0C00
0C00
0C00
0C00
ENDCHAR
STARTCHAR brokenbar
ENCODING 166
SWIDTH 375 0
DWIDTH 6 0
BBX 2 20 2 -4
BITMAP
C0
C0
C0
C0
C0
C0
C0
C0
00
00
00
00
C0
C0
C0
C0
C0
C0
C0
C0
ENDCHAR
STARTCHAR section
ENCODING 167
SWIDTH 875 0
DWIDTH 14 0
BBX 10 18 2 -2
BITMAP
3FC0
3FC0
C000
C000
3C00
3C00
C300
C300
C0C0
C0C0
30C0
30C0
0F00
0F00
00C0
00C0
FF00
FF00
ENDCHAR
STARTCHAR dieresis
ENCODING 168
SWIDTH 625 0
DWIDTH 10 0
BBX 6 2 2 14
BITMAP
CC
CC
ENDCHAR
STARTCHAR copyright
ENCODING 169
SWIDTH 1250 0
DWIDTH 20 0
BBX 16 16 2 0
BITMAP
0FF0
0FF0
300C
300C
C3F3
C3F3
CC03
CC03
CC03
CC03
C3F3
C3F3
300C
300C
0FF0
0FF0
ENDCHAR
STARTCHAR ordfeminine
ENCODING 170
SWIDTH 875 0
DWIDTH 14 0
BBX 8 10 2 6
BITMAP
FC
FC
03
03
3F
3F
C3
C3
3F
3F
ENDCHAR
STARTCHAR guillemotleft
ENCODING 171
SWIDTH 1000 0
DWIDTH 16 0
BBX 12 10 2 0
BITMAP
0C30
0C30
30C0
30C0
C300
C300
30C0
30C0
0C30
0C30
ENDCHAR
STARTCHAR logicalnot
ENCODING 172
SWIDTH 875 0
DWIDTH 14 0
BBX 10 8 2 0
BITMAP
FFC0
FFC0
00C0
00C0
00C0
00C0
00C0
00C0
ENDCHAR
STARTCHAR uni00AD
ENCODING 173
SWIDTH 750 0
DWIDTH 12 0
BBX 8 2 2 4
BITMAP
FF
FF
ENDCHAR
STARTCHAR registered
ENCODING 174
SWIDTH 1125 0
DWIDTH 18 0
BBX 14 14 2 2
BITMAP
0FC0
0FC0
3030
3030
CFCC
CFCC
CF0C
CF0C
CCCC
CCCC
3030
3030
0FC0
0FC0
ENDCHAR
STARTCHAR macron
ENCODING 175
SWIDTH 625 0
DWIDTH 10 0
BBX 6 2 2 14
BITMAP
FC
FC
ENDCHAR
STARTCHAR degree
ENCODING 176
SWIDTH 870 0
DWIDTH 14 0
BBX 8 8 2 10
BITMAP
3C
3C
C3
C3
C3
C3
3C
3C
ENDCHAR
STARTCHAR plusminus
ENCODING 177
SWIDTH 875 0
DWIDTH 14 0
BBX 10 14 2 0
BITMAP
0C00
0C00
0C00
0C00
FFC0
FFC0
0C00
0C00
0C00
0C00
0000
0000
FFC0
FFC0
ENDCHAR
STARTCHAR twosuperior
ENCODING 178
SWIDTH 625 0
DWIDTH 10 0
BBX 6 8 2 6
BITMAP
F0
F0
0C
0C
C0
C0
FC
FC
ENDCHAR
STARTCHAR threesuperior
ENCODING 179
SWIDTH 625 0
DWIDTH 10 0
BBX 6 8 2 6
BITMAP
FC
FC
30
30
0C
0C
F0
F0
ENDCHAR
STARTCHAR acute
ENCODING 180
SWIDTH 500 0
DWIDTH 8 0
BBX 4 4 2 14
BITMAP
30
30
C0
C0
ENDCHAR
STARTCHAR mu
ENCODING 181
SWIDTH 875 0
DWIDTH 14 0
BBX 10 14 2 -4
BITMAP
C300
C300
C300
C300
C300
C300
C300
C300
FCC0
FCC0
C000
C000
C000
C000
ENDCHAR
STARTCHAR paragraph
ENCODING 182
SWIDTH 1125 0
DWIDTH 18 0
BBX 14 16 2 -4
BITMAP
3CFC
3CFC
FCC0
FCC0
FCC0
FCC0
FCC0
FCC0
3CC0
3CC0
00C0
00C0
00C0
00C0
00C0
00C0
ENDCHAR
STARTCHAR periodcentered
ENCODING 183
SWIDTH 625 0
DWIDTH 10 0
BBX 2 4 4 4
BITMAP
C0
C0
C0
C0
ENDCHAR
STARTCHAR cedilla
ENCODING 184
SWIDTH 625 0
DWIDTH 10 0
BBX 6 4 2 -4
BITMAP
0C
0C
F0
F0
ENDCHAR
STARTCHAR onesuperior
ENCODING 185
SWIDTH 500 0
DWIDTH 8 0
BBX 4 8 2 6
BITMAP
F0
F0
30
30
30
30
30
30
ENDCHAR
STARTCHAR ordmasculine
ENCODING 186
SWIDTH 875 0
DWIDTH 14 0
BBX 8 10 2 6
BITMAP
3C
3C
C3
C3
C3
C3
C3
C3
3C
3C
ENDCHAR
STARTCHAR guillemotright
ENCODING 187
SWIDTH 1000 0
DWIDTH 16 0
BBX 12 10 2 0
BITMAP
C300
C300
30C0
30C0
0C30
0C30
30C0
30C0
C300
C300
ENDCHAR
STARTCHAR onequarter
ENCODING 188
SWIDTH 1375 0
DWIDTH 22 0
BBX 18 14 2 0
BITMAP
F03000
F03000
303000
303000
303000
303000
30C0C0
30C0C0
030300
030300
030FC0
030FC0
0300C0
0300C0
ENDCHAR
STARTCHAR onehalf
ENCODING 189
SWIDTH 1500 0
DWIDTH 24 0
BBX 20 14 2 0
BITMAP
F03000
F03000
303000
303000
303000
303000
30C3C0
30C3C0
030030
030030
030300
030300
0303F0
0303F0
ENDCHAR
STARTCHAR threequarters
ENCODING 190
SWIDTH 1500 0
DWIDTH 24 0
BBX 20 14 2 0
BITMAP
FC0C00
FC0C00
300C00
300C00
0C0C00
0C0C00
F03030
F03030
00C0C0
00C0C0
00C3F0
00C3F0
00C030
00C030
ENDCHAR
STARTCHAR questiondown
ENCODING 191
SWIDTH 750 0
DWIDTH 12 0
BBX 8 16 2 -4
BITMAP
0C
0C
0C
0C
00
00
0C
0C
30
30
C0
C0
C0
C0
3F
3F
ENDCHAR
STARTCHAR Agrave
ENCODING 192
SWIDTH 875 0
DWIDTH 14 0
BBX 10 20 2 0
BITMAP
3000
3000
0C00
0C00
0000
0000
3F00
3F00
C0C0
C0C0
C0C0
C0C0
C0C0
C0C0
FFC0
FFC0
C0C0
C0C0
C0C0
C0C0
ENDCHAR
STARTCHAR Aacute
ENCODING 193
SWIDTH 875 0
DWIDTH 14 0
BBX 10 20 2 0
BITMAP
0300
0300
0C00
0C00
0000
0000
3F00
3F00
C0C0
C0C0
C0C0
C0C0
C0C0
C0C0
FFC0
FFC0
C0C0
C0C0
C0C0
C0C0
ENDCHAR
STARTCHAR Acircumflex
ENCODING 194
SWIDTH 875 0
DWIDTH 14 0
BBX 10 20 2 0
BITMAP
0C00
0C00
3300
3300
0000
0000
3F00
3F00
C0C0
C0C0
C0C0
C0C0
C0C0
C0C0
FFC0
FFC0
C0C0
C0C0
C0C0
C0C0
ENDCHAR
STARTCHAR Atilde
ENCODING 195
SWIDTH 875 0
DWIDTH 14 0
BBX 10 20 2 0
BITMAP
3CC0
3CC0
CF00
CF00
0000
0000
3F00
3F00
C0C0
C0C0
C0C0
C0C0
C0C0
C0C0
FFC0
FFC0
C0C0
C0C0
C0C0
C0C0
ENDCHAR
STARTCHAR Adieresis
ENCODING 196
SWIDTH 875 0
DWIDTH 14 0
BBX 10 18 2 0
BITMAP
3300
3300
0000
0000
3F00
3F00
C0C0
C0C0
C0C0
C0C0
C0C0
C0C0
FFC0
FFC0
C0C0
C0C0
C0C0
C0C0
ENDCHAR
STARTCHAR Aring
ENCODING 197
SWIDTH 875 0
DWIDTH 14 0
BBX 10 20 2 0
BITMAP
0C00
0C00
3300
3300
0C00
0C00
0000
0000
3F00
3F00
C0C0
C0C0
C0C0
C0C0
FFC0
FFC0
C0C0
C0C0
C0C0
C0C0
ENDCHAR
STARTCHAR AE
ENCODING 198
SWIDTH 1375 0
DWIDTH 22 0
BBX 18 14 2 0
BITMAP
3FFFC0
3FFFC0
C0C000
C0C000
C0C000
C0C000
FFFF00
FFFF00
C0C000
C0C000
C0C000
C0C000
C0FFC0
C0FFC0
ENDCHAR
STARTCHAR Ccedilla
ENCODING 199
SWIDTH 875 0
DWIDTH 14 0
BBX 10 18 2 -4
BITMAP
3FC0
3FC0
C0C0
C0C0
C000
C000
C000
C000
C000
C000
C000
C000
3FC0
3FC0
0300
0300
3C00
3C00
ENDCHAR
STARTCHAR Egrave
ENCODING 200
SWIDTH 875 0
DWIDTH 14 0
BBX 10 20 2 0
BITMAP
3000
3000
0C00
0C00
0000
0000
FFC0
FFC0
C000
C000
C000
C000
FF00
FF00
C000
C000
C000
C000
FFC0
FFC0
ENDCHAR
STARTCHAR Eacute
ENCODING 201
SWIDTH 875 0
DWIDTH 14 0
BBX 10 20 2 0
BITMAP
0300
0300
0C00
0C00
0000
0000
FFC0
FFC0
C000
C000
C000
C000
FF00
FF00
C000
C000
C000
C000
FFC0
FFC0
ENDCHAR
STARTCHAR Ecircumflex
ENCODING 202
SWIDTH 875 0
DWIDTH 14 0
BBX 10 20 2 0
BITMAP
0C00
0C00
3300
3300
0000
0000
FFC0
FFC0
C000
C000
C000
C000
FF00
FF00
C000
C000
C000
C000
FFC0
FFC0
ENDCHAR
STARTCHAR Edieresis
ENCODING 203
SWIDTH 875 0
DWIDTH 14 0
BBX 10 18 2 0
BITMAP
3300
3300
0000
0000
FFC0
FFC0
C000
C000
C000
C000
FF00
FF00
C000
C000
C000
C000
FFC0
FFC0
ENDCHAR
STARTCHAR Igrave
ENCODING 204
SWIDTH 625 0
DWIDTH 10 0
BBX 6 20 2 0
BITMAP
C0
C0
30
30
00
00
FC
FC
30
30
30
30
30
30
30
30
30
30
FC
FC
ENDCHAR
STARTCHAR Iacute
ENCODING 205
SWIDTH 625 0
DWIDTH 10 0
BBX 6 20 2 0
BITMAP
0C
0C
30
30
00
00
FC
FC
30
30
30
30
30
30
30
30
30
30
FC
FC
ENDCHAR
STARTCHAR Icircumflex
ENCODING 206
SWIDTH 625 0
DWIDTH 10 0
BBX 6 20 2 0
BITMAP
30
30
CC
CC
00
00
FC
FC
30
30
30
30
30
30
30
30
30
30
FC
FC
ENDCHAR
STARTCHAR Idieresis
ENCODING 207
SWIDTH 625 0
DWIDTH 10 0
BBX 6 18 2 0
BITMAP
CC
CC
00
00
FC
FC
30
30
30
30
30
30
30
30
30
30
FC
FC
ENDCHAR
STARTCHAR Eth
ENCODING 208
SWIDTH 875 0
DWIDTH 14 0
BBX 12 14 0 0
BITMAP
3F00
3F00
30C0
30C0
3030
3030
FF30
FF30
3030
3030
30C0
30C0
3F00
3F00
ENDCHAR
STARTCHAR Ntilde
ENCODING 209
SWIDTH 875 0
DWIDTH 14 0
BBX 10 20 2 0
BITMAP
3CC0
3CC0
CF00
CF00
0000
0000
C0C0
C0C0
C0C0
C0C0
F0C0
F0C0
CCC0
CCC0
C3C0
C3C0
C0C0
C0C0
C0C0
C0C0
ENDCHAR
STARTCHAR Ograve
ENCODING 210
SWIDTH 875 0
DWIDTH 14 0
BBX 10 20 2 0
BITMAP
3000
3000
0C00
0C00
0000
0000
3F00
3F00
C0C0
C0C0
C0C0
C0C0
C0C0
C0C0
C0C0
C0C0
C0C0
C0C0
3F00
3F00
ENDCHAR
STARTCHAR Oacute
ENCODING 211
SWIDTH 875 0
DWIDTH 14 0
BBX 10 20 2 0
BITMAP
0300
0300
0C00
0C00
0000
0000
3F00
3F00
C0C0
C0C0
C0C0
C0C0
C0C0
C0C0
C0C0
C0C0
C0C0
C0C0
3F00
3F00
ENDCHAR
STARTCHAR Ocircumflex
ENCODING 212
SWIDTH 875 0
DWIDTH 14 0
BBX 10 20 2 0
BITMAP
0C00
0C00
3300
3300
0000
0000
3F00
3F00
C0C0
C0C0
C0C0
C0C0
C0C0
C0C0
C0C0
C0C0
C0C0
C0C0
3F00
3F00
ENDCHAR
STARTCHAR Otilde
ENCODING 213
SWIDTH 875 0
DWIDTH 14 0
BBX 10 20 2 0
BITMAP
3CC0
3CC0
CF00
CF00
0000
0000
3F00
3F00
C0C0
C0C0
C0C0
C0C0
C0C0
C0C0
C0C0
C0C0
C0C0
C0C0
3F00
3F00
ENDCHAR
STARTCHAR Odieresis
ENCODING 214
SWIDTH 875 0
DWIDTH 14 0
BBX 10 18 2 0
BITMAP
3300
3300
0000
0000
3F00
3F00
C0C0
C0C0
C0C0
C0C0
C0C0
C0C0
C0C0
C0C0
C0C0
C0C0
3F00
3F00
ENDCHAR
STARTCHAR multiply
ENCODING 215
SWIDTH 875 0
DWIDTH 14 0
BBX 10 10 2 2
BITMAP
C0C0
C0C0
3300
3300
0C00
0C00
3300
3300
C0C0
C0C0
ENDCHAR
STARTCHAR Oslash
ENCODING 216
SWIDTH 875 0
DWIDTH 14 0
BBX 10 14 2 0
BITMAP
3F00
3F00
C0C0
C0C0
C3C0
C3C0
CCC0
CCC0
F0C0
F0C0
C0C0
C0C0
3F00
3F00
ENDCHAR
STARTCHAR Ugrave
ENCODING 217
SWIDTH 875 0
DWIDTH 14 0
BBX 10 20 2 0
BITMAP
3000
3000
0C00
0C00
0000
0000
C0C0
C0C0
C0C0
C0C0
C0C0
C0C0
C0C0
C0C0
C0C0
C0C0
C0C0
C0C0
3F00
3F00
ENDCHAR
STARTCHAR Uacute
ENCODING 218
SWIDTH 875 0
DWIDTH 14 0
BBX 10 20 2 0
BITMAP
0300
0300
0C00
0C00
0000
0000
C0C0
C0C0
C0C0
C0C0
C0C0
C0C0
C0C0
C0C0
C0C0
C0C0
C0C0
C0C0
3F00
3F00
ENDCHAR
STARTCHAR Ucircumflex
ENCODING 219
SWIDTH 875 0
DWIDTH 14 0
BBX 10 20 2 0
BITMAP
0C00
0C00
3300
3300
0000
0000
C0C0
C0C0
C0C0
C0C0
C0C0
C0C0
C0C0
C0C0
C0C0
C0C0
C0C0
C0C0
3F00
3F00
ENDCHAR
STARTCHAR Udieresis
ENCODING 220
SWIDTH 875 0
DWIDTH 14 0
BBX 10 18 2 0
BITMAP
3300
3300
0000
0000
C0C0
C0C0
C0C0
C0C0
C0C0
C0C0
C0C0
C0C0
C0C0
C0C0
C0C0
C0C0
3F00
3F00
ENDCHAR
STARTCHAR Yacute
ENCODING 221
SWIDTH 875 0
DWIDTH 14 0
BBX 10 20 2 0
BITMAP
0300
0300
0C00
0C00
0000
0000
C0C0
C0C0
C0C0
C0C0
3300
3300
0C00
0C00
0C00
0C00
0C00
0C00
0C00
0C00
ENDCHAR
STARTCHAR Thorn
ENCODING 222
SWIDTH 875 0
DWIDTH 14 0
BBX 10 16 2 0
BITMAP
C000
C000
FF00
FF00
C0C0
C0C0
C0C0
C0C0
FF00
FF00
C000
C000
C000
C000
C000
C000
ENDCHAR
STARTCHAR germandbls
ENCODING 223
SWIDTH 1000 0
DWIDTH 16 0
BBX 12 16 2 0
BITMAP
3F00
3F00
C0C0
C0C0
C0C0
C0C0
C300
C300
CC00
CC00
C3C0
C3C0
C030
C030
CFC0
CFC0
ENDCHAR
STARTCHAR agrave
ENCODING 224
SWIDTH 875 0
DWIDTH 14 0
BBX 10 18 2 0
BITMAP
3000
3000
0C00
0C00
0000
0000
0000
0000
3F00
3F00
00C0
00C0
3FC0
3FC0
C0C0
C0C0
3FC0
3FC0
ENDCHAR
STARTCHAR aacute
ENCODING 225
SWIDTH 875 0
DWIDTH 14 0
BBX 10 18 2 0
BITMAP
0300
0300
0C00
0C00
0000
0000
0000
0000
3F00
3F00
00C0
00C0
3FC0
3FC0
C0C0
C0C0
3FC0
3FC0
ENDCHAR
STARTCHAR acircumflex
ENCODING 226
SWIDTH 875 0
DWIDTH 14 0
BBX 10 18 2 0
BITMAP
0C00
0C00
3300
3300
0000
0000
0000
0000
3F00
3F00
00C0
00C0
3FC0
3FC0
C0C0
C0C0
3FC0
3FC0
ENDCHAR
STARTCHAR atilde
ENCODING 227
SWIDTH 875 0
DWIDTH 14 0
BBX 10 18 2 0
BITMAP
3CC0
3CC0
CF00
CF00
0000
0000
0000
0000
3F00
3F00
00C0
00C0
3FC0
3FC0
C0C0
C0C0
3FC0
3FC0
ENDCHAR
STARTCHAR adieresis
ENCODING 228
SWIDTH 875 0
DWIDTH 14 0
BBX 10 16 2 0
BITMAP
3300
3300
0000
0000
0000
0000
3F00
3F00
00C0
00C0
3FC0
3FC0
C0C0
C0C0
3FC0
3FC0
ENDCHAR
STARTCHAR aring
ENCODING 229
SWIDTH 875 0
DWIDTH 14 0
BBX 10 18 2 0
BITMAP
0C00
0C00
3300
3300
0C00
0C00
0000
0000
3F00
3F00
00C0
00C0
3FC0
3FC0
C0C0
C0C0
3FC0
3FC0
ENDCHAR
STARTCHAR ae
ENCODING 230
SWIDTH 1375 0
DWIDTH 22 0
BBX 18 10 2 0
BITMAP
3F3F00
3F3F00
00C0C0
00C0C0
3FFFC0
3FFFC0
C0C000
C0C000
3F3FC0
3F3FC0
ENDCHAR
STARTCHAR ccedilla
ENCODING 231
SWIDTH 875 0
DWIDTH 14 0
BBX 10 14 2 -4
BITMAP
3FC0
3FC0
C000
C000
C000
C000
C000
C000
3FC0
3FC0
0300
0300
3C00
3C00
ENDCHAR
STARTCHAR egrave
ENCODING 232
SWIDTH 875 0
DWIDTH 14 0
BBX 10 18 2 0
BITMAP
3000
3000
0C00
0C00
0000
0000
0000
0000
3F00
3F00
C0C0
C0C0
FFC0
FFC0
C000
C000
3FC0
3FC0
ENDCHAR
STARTCHAR eacute
ENCODING 233
SWIDTH 875 0
DWIDTH 14 0
BBX 10 18 2 0
BITMAP
0300
0300
0C00
0C00
0000
0000
0000
0000
3F00
3F00
C0C0
C0C0
FFC0
FFC0
C000
C000
3FC0
3FC0
ENDCHAR
STARTCHAR ecircumflex
ENCODING 234
SWIDTH 875 0
DWIDTH 14 0
BBX 10 18 2 0
BITMAP
0C00
0C00
3300
3300
0000
0000
0000
0000
3F00
3F00
C0C0
C0C0
FFC0
FFC0
C000
C000
3FC0
3FC0
ENDCHAR
STARTCHAR edieresis
ENCODING 235
SWIDTH 875 0
DWIDTH 14 0
BBX 10 16 2 0
BITMAP
3300
3300
0000
0000
0000
0000
3F00
3F00
C0C0
C0C0
FFC0
FFC0
C000
C000
3FC0
3FC0
ENDCHAR
STARTCHAR igrave
ENCODING 236
SWIDTH 375 0
DWIDTH 6 0
BBX 4 18 0 0
BITMAP
C0
C0
30
30
00
00
00
00
30
30
30
30
30
30
30
30
30
30
ENDCHAR
STARTCHAR iacute
ENCODING 237
SWIDTH 375 0
DWIDTH 6 0
BBX 4 18 2 0
BITMAP
30
30
C0
C0
00
00
00
00
C0
C0
C0
C0
C0
C0
C0
C0
C0
C0
ENDCHAR
STARTCHAR icircumflex
ENCODING 238
SWIDTH 375 0
DWIDTH 6 0
BBX 6 18 0 0
BITMAP
30
30
CC
CC
00
00
00
00
30
30
30
30
30
30
30
30
30
30
ENDCHAR
STARTCHAR idieresis
ENCODING 239
SWIDTH 375 0
DWIDTH 6 0
BBX 6 16 0 0
BITMAP
CC
CC
00
00
00
00
30
30
30
30
30
30
30
30
30
30
ENDCHAR
STARTCHAR eth
ENCODING 240
SWIDTH 875 0
DWIDTH 14 0
BBX 10 16 2 0
BITMAP
3300
3300
0C00
0C00
3300
3300
00C0
00C0
3FC0
3FC0
C0C0
C0C0
C0C0
C0C0
3F00
3F00
ENDCHAR
STARTCHAR ntilde
ENCODING 241
SWIDTH 875 0
DWIDTH 14 0
BBX 10 18 2 0
BITMAP
3CC0
3CC0
CF00
CF00
0000
0000
0000
0000
FF00
FF00
C0C0
C0C0
C0C0
C0C0
C0C0
C0C0
C0C0
C0C0
ENDCHAR
STARTCHAR ograve
ENCODING 242
SWIDTH 875 0
DWIDTH 14 0
BBX 10 18 2 0
BITMAP
3000
3000
0C00
0C00
0000
0000
0000
0000
3F00
3F00
C0C0
C0C0
C0C0
C0C0
C0C0
C0C0
3F00
3F00
ENDCHAR
STARTCHAR oacute
ENCODING 243
SWIDTH 875 0
DWIDTH 14 0
BBX 10 18 2 0
BITMAP
0300
0300
0C00
0C00
0000
0000
0000
0000
3F00
3F00
C0C0
C0C0
C0C0
C0C0
C0C0
C0C0
3F00
3F00
ENDCHAR
STARTCHAR ocircumflex
ENCODING 244
SWIDTH 875 0
DWIDTH 14 0
BBX 10 18 2 0
BITMAP
0C00
0C00
3300
3300
0000
0000
0000
0000
3F00
3F00
C0C0
C0C0
C0C0
C0C0
C0C0
C0C0
3F00
3F00
ENDCHAR
STARTCHAR otilde
ENCODING 245
SWIDTH 875 0
DWIDTH 14 0
BBX 10 18 2 0
BITMAP
3CC0
3CC0
CF00
CF00
0000
0000
0000
0000
3F00
3F00
C0C0
C0C0
C0C0
C0C0
C0C0
C0C0
3F00
3F00
ENDCHAR
STARTCHAR odieresis
ENCODING 246
SWIDTH 875 0
DWIDTH 14 0
BBX 10 16 2 0
BITMAP
3300
3300
0000
0000
0000
0000
3F00
3F00
C0C0
C0C0
C0C0
C0C0
C0C0
C0C0
3F00
3F00
ENDCHAR
STARTCHAR divide
ENCODING 247
SWIDTH 875 0
DWIDTH 14 0
BBX 10 10 2 2
BITMAP
0C00
0C00
0000
0000
FFC0
FFC0
0000
0000
0C00
0C00
ENDCHAR
STARTCHAR oslash
ENCODING 248
SWIDTH 875 0
DWIDTH 14 0
BBX 10 10 2 0
BITMAP
3F00
3F00
C3C0
C3C0
CCC0
CCC0
F0C0
F0C0
3F00
3F00
ENDCHAR
STARTCHAR ugrave
ENCODING 249
SWIDTH 875 0
DWIDTH 14 0
BBX 10 18 2 0
BITMAP
3000
3000
0C00
0C00
0000
0000
0000
0000
C0C0
C0C0
C0C0
C0C0
C0C0
C0C0
C0C0
C0C0
3FC0
3FC0
ENDCHAR
STARTCHAR uacute
ENCODING 250
SWIDTH 875 0
DWIDTH 14 0
BBX 10 18 2 0
BITMAP
0300
0300
0C00
0C00
0000
0000
0000
0000
C0C0
C0C0
C0C0
C0C0
C0C0
C0C0
C0C0
C0C0
3FC0
3FC0
ENDCHAR
STARTCHAR ucircumflex
ENCODING 251
SWIDTH 875 0
DWIDTH 14 0
BBX 10 18 2 0
BITMAP
0C00
0C00
3300
3300
0000
0000
0000
0000
C0C0
C0C0
C0C0
C0C0
C0C0
C0C0
C0C0
C0C0
3FC0
3FC0
ENDCHAR
STARTCHAR udieresis
ENCODING 252
SWIDTH 875 0
DWIDTH 14 0
BBX 10 16 2 0
BITMAP
3300
3300
0000
0000
0000
0000
C0C0
C0C0
C0C0
C0C0
C0C0
C0C0
C0C0
C0C0
3FC0
3FC0
ENDCHAR
STARTCHAR yacute
ENCODING 253
SWIDTH 875 0
DWIDTH 14 0
BBX 12 22 0 -4
BITMAP
00C0
00C0
0300
0300
0000
0000
0000
0000
3030
3030
3030
3030
3030
3030
0CC0
0CC0
0300
0300
0C00
0C00
F000
F000
ENDCHAR
STARTCHAR thorn
ENCODING 254
SWIDTH 875 0
DWIDTH 14 0
BBX 10 18 2 -4
BITMAP
C000
C000
C000
C000
FF00
FF00
C0C0
C0C0
C0C0
C0C0
C0C0
C0C0
FF00
FF00
C000
C000
C000
C000
ENDCHAR
STARTCHAR ydieresis
ENCODING 255
SWIDTH 875 0
DWIDTH 14 0
BBX 12 20 0 -4
BITMAP
0CC0
0CC0
0000
0000
0000
0000
3030
3030
3030
3030
3030
3030
0CC0
0CC0
0300
0300
0C00
0C00
F000
F000
ENDCHAR
STARTCHAR Amacron
ENCODING 256
SWIDTH 875 0
DWIDTH 14 0
BBX 10 18 2 0
BITMAP
3F00
3F00
0000
0000
3F00
3F00
C0C0
C0C0
C0C0
C0C0
C0C0
C0C0
FFC0
FFC0
C0C0
C0C0
C0C0
C0C0
ENDCHAR
STARTCHAR amacron
ENCODING 257
SWIDTH 875 0
DWIDTH 14 0
BBX 10 16 2 0
BITMAP
3F00
3F00
0000
0000
0000
0000
3F00
3F00
00C0
00C0
3FC0
3FC0
C0C0
C0C0
3FC0
3FC0
ENDCHAR
STARTCHAR Abreve
ENCODING 258
SWIDTH 875 0
DWIDTH 14 0
BBX 10 20 2 0
BITMAP
C0C0
C0C0
3F00
3F00
0000
0000
3F00
3F00
C0C0
C0C0
C0C0
C0C0
C0C0
C0C0
FFC0
FFC0
C0C0
C0C0
C0C0
C0C0
ENDCHAR
STARTCHAR abreve
ENCODING 259
SWIDTH 875 0
DWIDTH 14 0
BBX 10 18 2 0
BITMAP
C0C0
C0C0
3F00
3F00
0000
0000
0000
0000
3F00
3F00
00C0
00C0
3FC0
3FC0
C0C0
C0C0
3FC0
3FC0
ENDCHAR
STARTCHAR Aogonek
ENCODING 260
SWIDTH 875 0
DWIDTH 14 0
BBX 12 18 2 -4
BITMAP
3F00
3F00
C0C0
C0C0
C0C0
C0C0
C0C0
C0C0
FFC0
FFC0
C0C0
C0C0
C0C0
C0C0
0300
0300
00F0
00F0
ENDCHAR
STARTCHAR aogonek
ENCODING 261
SWIDTH 875 0
DWIDTH 14 0
BBX 12 14 2 -4
BITMAP
3F00
3F00
00C0
00C0
3FC0
3FC0
C0C0
C0C0
3FC0
3FC0
0300
0300
00F0
00F0
ENDCHAR
STARTCHAR Cacute
ENCODING 262
SWIDTH 875 0
DWIDTH 14 0
BBX 10 20 2 0
BITMAP
0300
0300
0C00
0C00
0000
0000
3FC0
3FC0
C0C0
C0C0
C000
C000
C000
C000
C000
C000
C000
C000
3FC0
3FC0
ENDCHAR
STARTCHAR cacute
ENCODING 263
SWIDTH 875 0
DWIDTH 14 0
BBX 10 18 2 0
BITMAP
0300
0300
0C00
0C00
0000
0000
0000
0000
3FC0
3FC0
C000
C000
C000
C000
C000
C000
3FC0
3FC0
ENDCHAR
STARTCHAR Ccircumflex
ENCODING 264
SWIDTH 875 0
DWIDTH 14 0
BBX 10 20 2 0
BITMAP
0C00
0C00
3300
3300
0000
0000
3FC0
3FC0
C0C0
C0C0
C000
C000
C000
C000
C000
C000
C000
C000
3FC0
3FC0
ENDCHAR
STARTCHAR ccircumflex
ENCODING 265
SWIDTH 875 0
DWIDTH 14 0
BBX 10 18 2 0
BITMAP
0C00
0C00
3300
3300
0000
0000
0000
0000
3FC0
3FC0
C000
C000
C000
C000
C000
C000
3FC0
3FC0
ENDCHAR
STARTCHAR Cdotaccent
ENCODING 266
SWIDTH 875 0
DWIDTH 14 0
BBX 10 18 2 0
BITMAP
0C00
0C00
0000
0000
3FC0
3FC0
C0C0
C0C0
C000
C000
C000
C000
C000
C000
C000
C000
3FC0
3FC0
ENDCHAR
STARTCHAR cdotaccent
ENCODING 267
SWIDTH 875 0
DWIDTH 14 0
BBX 10 16 2 0
BITMAP
0C00
0C00
0000
0000
0000
0000
3FC0
3FC0
C000
C000
C000
C000
C000
C000
3FC0
3FC0
ENDCHAR
STARTCHAR Ccaron
ENCODING 268
SWIDTH 875 0
DWIDTH 14 0
BBX 10 20 2 0
BITMAP
3300
3300
0C00
0C00
0000
0000
3FC0
3FC0
C0C0
C0C0
C000
C000
C000
C000
C000
C000
C000
C000
3FC0
3FC0
ENDCHAR
STARTCHAR ccaron
ENCODING 269
SWIDTH 875 0
DWIDTH 14 0
BBX 10 18 2 0
BITMAP
3300
3300
0C00
0C00
0000
0000
0000
0000
3FC0
3FC0
C000
C000
C000
C000
C000
C000
3FC0
3FC0
ENDCHAR
STARTCHAR Dcaron
ENCODING 270
SWIDTH 875 0
DWIDTH 14 0
BBX 10 20 2 0
BITMAP
CC00
CC00
3000
3000
0000
0000
FC00
FC00
C300
C300
C0C0
C0C0
C0C0
C0C0
C0C0
C0C0
C300
C300
FC00
FC00
ENDCHAR
STARTCHAR dcaron
ENCODING 271
SWIDTH 1000 0
DWIDTH 16 0
BBX 14 16 2 0
BITMAP
00CC
00CC
00CC
00CC
00CC
00CC
3FC0
3FC0
C0C0
C0C0
C0C0
C0C0
C0C0
C0C0
3FC0
3FC0
ENDCHAR
STARTCHAR Dcroat
ENCODING 272
SWIDTH 875 0
DWIDTH 14 0
BBX 12 14 0 0
BITMAP
3F00
3F00
30C0
30C0
3030
3030
FF30
FF30
3030
3030
30C0
30C0
3F00
3F00
ENDCHAR
STARTCHAR dcroat
ENCODING 273
SWIDTH 875 0
DWIDTH 14 0
BBX 12 16 2 0
BITMAP
00C0
00C0
03F0
03F0
00C0
00C0
3FC0
3FC0
C0C0
C0C0
C0C0
C0C0
C0C0
C0C0
3FC0
3FC0
ENDCHAR
STARTCHAR Emacron
ENCODING 274
SWIDTH 875 0
DWIDTH 14 0
BBX 10 18 2 0
BITMAP
3F00
3F00
0000
0000
FFC0
FFC0
C000
C000
C000
C000
FF00
FF00
C000
C000
C000
C000
FFC0
FFC0
ENDCHAR
STARTCHAR emacron
ENCODING 275
SWIDTH 875 0
DWIDTH 14 0
BBX 10 16 2 0
BITMAP
3F00
3F00
0000
0000
0000
0000
3F00
3F00
C0C0
C0C0
FFC0
FFC0
C000
C000
3FC0
3FC0
ENDCHAR
STARTCHAR Ebreve
ENCODING 276
SWIDTH 875 0
DWIDTH 14 0
BBX 10 20 2 0
BITMAP
C0C0
C0C0
3F00
3F00
0000
0000
FFC0
FFC0
C000
C000
C000
C000
FF00
FF00
C000
C000
C000
C000
FFC0
FFC0
ENDCHAR
STARTCHAR ebreve
ENCODING 277
SWIDTH 875 0
DWIDTH 14 0
BBX 10 18 2 0
BITMAP
C0C0
C0C0
3F00
3F00
0000
0000
0000
0000
3F00
3F00
C0C0
C0C0
FFC0
FFC0
C000
C000
3FC0
3FC0
ENDCHAR
STARTCHAR Edotaccent
ENCODING 278
SWIDTH 875 0
DWIDTH 14 0
BBX 10 18 2 0
BITMAP
0C00
0C00
0000
0000
FFC0
FFC0
C000
C000
C000
C000
FF00
FF00
C000
C000
C000
C000
FFC0
FFC0
ENDCHAR
STARTCHAR edotaccent
ENCODING 279
SWIDTH 875 0
DWIDTH 14 0
BBX 10 16 2 0
BITMAP
0C00
0C00
0000
0000
0000
0000
3F00
3F00
C0C0
C0C0
FFC0
FFC0
C000
C000
3FC0
3FC0
ENDCHAR
STARTCHAR Eogonek
ENCODING 280
SWIDTH 875 0
DWIDTH 14 0
BBX 12 18 2 -4
BITMAP
FFC0
FFC0
C000
C000
C000
C000
FF00
FF00
C000
C000
C000
C000
FFC0
FFC0
0300
0300
00F0
00F0
ENDCHAR
STARTCHAR eogonek
ENCODING 281
SWIDTH 875 0
DWIDTH 14 0
BBX 10 14 2 -4
BITMAP
3F00
3F00
C0C0
C0C0
FFC0
FFC0
C000
C000
3FC0
3FC0
0C00
0C00
03C0
03C0
ENDCHAR
STARTCHAR Ecaron
ENCODING 282
SWIDTH 875 0
DWIDTH 14 0
BBX 10 20 2 0
BITMAP
3300
3300
0C00
0C00
0000
0000
FFC0
FFC0
C000
C000
C000
C000
FF00
FF00
C000
C000
C000
C000
FFC0
FFC0
ENDCHAR
STARTCHAR ecaron
ENCODING 283
SWIDTH 875 0
DWIDTH 14 0
BBX 10 18 2 0
BITMAP
3300
3300
0C00
0C00
0000
0000
0000
0000
3F00
3F00
C0C0
C0C0
FFC0
FFC0
C000
C000
3FC0
3FC0
ENDCHAR
STARTCHAR Gcircumflex
ENCODING 284
SWIDTH 875 0
DWIDTH 14 0
BBX 10 20 2 0
BITMAP
0C00
0C00
3300
3300
0000
0000
3FC0
3FC0
C000
C000
C000
C000
C000
C000
C3C0
C3C0
C0C0
C0C0
3F00
3F00
ENDCHAR
STARTCHAR gcircumflex
ENCODING 285
SWIDTH 875 0
DWIDTH 14 0
BBX 10 22 2 -4
BITMAP
0C00
0C00
3300
3300
0000
0000
0000
0000
3FC0
3FC0
C0C0
C0C0
C0C0
C0C0
C0C0
C0C0
3FC0
3FC0
00C0
00C0
FF00
FF00
ENDCHAR
STARTCHAR Gbreve
ENCODING 286
SWIDTH 875 0
DWIDTH 14 0
BBX 10 20 2 0
BITMAP
C0C0
C0C0
3F00
3F00
0000
0000
3FC0
3FC0
C000
C000
C000
C000
C000
C000
C3C0
C3C0
C0C0
C0C0
3F00
3F00
ENDCHAR
STARTCHAR gbreve
ENCODING 287
SWIDTH 875 0
DWIDTH 14 0
BBX 10 22 2 -4
BITMAP
C0C0
C0C0
3F00
3F00
0000
0000
0000
0000
3FC0
3FC0
C0C0
C0C0
C0C0
C0C0
C0C0
C0C0
3FC0
3FC0
00C0
00C0
FF00
FF00
ENDCHAR
STARTCHAR Gdotaccent
ENCODING 288
SWIDTH 875 0
DWIDTH 14 0
BBX 10 18 2 0
BITMAP
0C00
0C00
0000
0000
3FC0
3FC0
C000
C000
C000
C000
C000
C000
C3C0
C3C0
C0C0
C0C0
3F00
3F00
ENDCHAR
STARTCHAR gdotaccent
ENCODING 289
SWIDTH 875 0
DWIDTH 14 0
BBX 10 20 2 -4
BITMAP
0C00
0C00
0000
0000
0000
0000
3FC0
3FC0
C0C0
C0C0
C0C0
C0C0
C0C0
C0C0
3FC0
3FC0
00C0
00C0
FF00
FF00
ENDCHAR
STARTCHAR Gcommaaccent
ENCODING 290
SWIDTH 875 0
DWIDTH 14 0
BBX 10 20 2 -6
BITMAP
3FC0
3FC0
C000
C000
C000
C000
C000
C000
C3C0
C3C0
C0C0
C0C0
3F00
3F00
0000
0000
0C00
0C00
F000
F000
ENDCHAR
STARTCHAR gcommaaccent
ENCODING 291
SWIDTH 875 0
DWIDTH 14 0
BBX 10 22 2 -4
BITMAP
03C0
03C0
0C00
0C00
0000
0000
0000
0000
3FC0
3FC0
C0C0
C0C0
C0C0
C0C0
C0C0
C0C0
3FC0
3FC0
00C0
00C0
FF00
FF00
ENDCHAR
STARTCHAR Hcircumflex
ENCODING 292
SWIDTH 875 0
DWIDTH 14 0
BBX 10 20 2 0
BITMAP
0C00
0C00
3300
3300
0000
0000
C0C0
C0C0
C0C0
C0C0
C0C0
C0C0
FFC0
FFC0
C0C0
C0C0
C0C0
C0C0
C0C0
C0C0
ENDCHAR
STARTCHAR hcircumflex
ENCODING 293
SWIDTH 875 0
DWIDTH 14 0
BBX 12 20 0 0
BITMAP
3000
3000
CC00
CC00
0000
0000
3000
3000
3000
3000
3FC0
3FC0
3030
3030
3030
3030
3030
3030
3030
3030
ENDCHAR
STARTCHAR Hbar
ENCODING 294
SWIDTH 875 0
DWIDTH 14 0
BBX 14 14 0 0
BITMAP
3030
3030
FFFC
FFFC
3030
3030
3FF0
3FF0
3030
3030
3030
3030
3030
3030
ENDCHAR
STARTCHAR hbar
ENCODING 295
SWIDTH 875 0
DWIDTH 14 0
BBX 12 16 0 0
BITMAP
3000
3000
FC00
FC00
3000
3000
3FC0
3FC0
3030
3030
3030
3030
3030
3030
3030
3030
ENDCHAR
STARTCHAR Itilde
ENCODING 296
SWIDTH 625 0
DWIDTH 10 0
BBX 10 20 0 0
BITMAP
3CC0
3CC0
CF00
CF00
0000
0000
3F00
3F00
0C00
0C00
0C00
0C00
0C00
0C00
0C00
0C00
0C00
0C00
3F00
3F00
ENDCHAR
STARTCHAR itilde
ENCODING 297
SWIDTH 375 0
DWIDTH 6 0
BBX 8 18 0 0
BITMAP
33
33
CC
CC
00
00
00
00
30
30
30
30
30
30
30
30
30
30
ENDCHAR
STARTCHAR Imacron
ENCODING 298
SWIDTH 625 0
DWIDTH 10 0
BBX 6 18 2 0
BITMAP
FC
FC
00
00
FC
FC
30
30
30
30
30
30
30
30
30
30
FC
FC
ENDCHAR
STARTCHAR imacron
ENCODING 299
SWIDTH 375 0
DWIDTH 6 0
BBX 6 16 0 0
BITMAP
FC
FC
00
00
00
00
30
30
30
30
30
30
30
30
30
30
ENDCHAR
STARTCHAR Iogonek
ENCODING 302
SWIDTH 625 0
DWIDTH 10 0
BBX 8 18 2 -4
BITMAP
FC
FC
30
30
30
30
30
30
30
30
30
30
FC
FC
30
30
0F
0F
ENDCHAR
STARTCHAR iogonek
ENCODING 303
SWIDTH 375 0
DWIDTH 6 0
BBX 6 20 2 -4
BITMAP
C0
C0
00
00
00
00
C0
C0
C0
C0
C0
C0
C0
C0
C0
C0
C0
C0
3C
3C
ENDCHAR
STARTCHAR Idotaccent
ENCODING 304
SWIDTH 625 0
DWIDTH 10 0
BBX 6 18 2 0
BITMAP
30
30
00
00
FC
FC
30
30
30
30
30
30
30
30
30
30
FC
FC
ENDCHAR
STARTCHAR dotlessi
ENCODING 305
SWIDTH 375 0
DWIDTH 6 0
BBX 2 10 2 0
BITMAP
C0
C0
C0
C0
C0
C0
C0
C0
C0
C0
ENDCHAR
STARTCHAR IJ
ENCODING 306
SWIDTH 1500 0
DWIDTH 24 0
BBX 20 14 2 0
BITMAP
FC0FF0
FC0FF0
300030
300030
300030
300030
300030
300030
303030
303030
303030
303030
FC0FC0
FC0FC0
ENDCHAR
STARTCHAR ij
ENCODING 307
SWIDTH 750 0
DWIDTH 12 0
BBX 8 20 2 -4
BITMAP
C3
C3
00
00
00
00
C3
C3
C3
C3
C3
C3
C3
C3
C3
C3
03
03
0C
0C
ENDCHAR
STARTCHAR Jcircumflex
ENCODING 308
SWIDTH 875 0
DWIDTH 14 0
BBX 10 20 2 0
BITMAP
0C00
0C00
3300
3300
0000
0000
3FC0
3FC0
00C0
00C0
00C0
00C0
00C0
00C0
C0C0
C0C0
C0C0
C0C0
3F00
3F00
ENDCHAR
STARTCHAR jcircumflex
ENCODING 309
SWIDTH 375 0
DWIDTH 6 0
BBX 6 22 0 -4
BITMAP
30
30
CC
CC
00
00
00
00
30
30
30
30
30
30
30
30
30
30
30
30
C0
C0
ENDCHAR
STARTCHAR Kcommaaccent
ENCODING 310
SWIDTH 875 0
DWIDTH 14 0
BBX 10 20 2 -6
BITMAP
C0C0
C0C0
C0C0
C0C0
C300
C300
FC00
FC00
C300
C300
C0C0
C0C0
C0C0
C0C0
0000
0000
0C00
0C00
F000
F000
ENDCHAR
STARTCHAR kcommaaccent
ENCODING 311
SWIDTH 875 0
DWIDTH 14 0
BBX 10 22 2 -6
BITMAP
C000
C000
C000
C000
C000
C000
C300
C300
CC00
CC00
FC00
FC00
C300
C300
C0C0
C0C0
0000
0000
0C00
0C00
F000
F000
ENDCHAR
STARTCHAR kgreenlandic
ENCODING 312
SWIDTH 875 0
DWIDTH 14 0
BBX 10 10 2 0
BITMAP
C0C0
C0C0
C300
C300
FC00
FC00
C300
C300
C0C0
C0C0
ENDCHAR
STARTCHAR Lacute
ENCODING 313
SWIDTH 750 0
DWIDTH 12 0
BBX 10 20 2 0
BITMAP
3000
3000
C000
C000
0000
0000
C000
C000
C000
C000
C000
C000
C000
C000
C000
C000
C000
C000
FFC0
FFC0
ENDCHAR
STARTCHAR lacute
ENCODING 314
SWIDTH 500 0
DWIDTH 8 0
BBX 6 20 2 0
BITMAP
30
30
C0
C0
00
00
C0
C0
C0
C0
C0
C0
C0
C0
C0
C0
C0
C0
3C
3C
ENDCHAR
STARTCHAR Lcommaaccent
ENCODING 315
SWIDTH 750 0
DWIDTH 12 0
BBX 10 20 2 -6
BITMAP
C000
C000
C000
C000
C000
C000
C000
C000
C000
C000
C000
C000
FFC0
FFC0
0000
0000
0C00
0C00
F000
F000
ENDCHAR
STARTCHAR lcommaaccent
ENCODING 316
SWIDTH 500 0
DWIDTH 8 0
BBX 8 22 0 -6
BITMAP
30
30
30
30
30
30
30
30
30
30
30
30
30
30
0F
0F
00
00
0C
0C
F0
F0
ENDCHAR
STARTCHAR Lcaron
ENCODING 317
SWIDTH 750 0
DWIDTH 12 0
BBX 10 16 2 0
BITMAP
00C0
00C0
C0C0
C0C0
C0C0
C0C0
C000
C000
C000
C000
C000
C000
C000
C000
FFC0
FFC0
ENDCHAR
STARTCHAR lcaron
ENCODING 318
SWIDTH 750 0
DWIDTH 12 0
BBX 8 16 2 0
BITMAP
C3
C3
C3
C3
C3
C3
C0
C0
C0
C0
C0
C0
C0
C0
3C
3C
ENDCHAR
STARTCHAR Ldot
ENCODING 319
SWIDTH 750 0
DWIDTH 12 0
BBX 10 14 2 0
BITMAP
C000
C000
C000
C000
C300
C300
C300
C300
C000
C000
C000
C000
FFC0
FFC0
ENDCHAR
STARTCHAR ldot
ENCODING 320
SWIDTH 500 0
DWIDTH 8 0
BBX 6 16 2 0
BITMAP
C0
C0
C0
C0
C0
C0
CC
CC
CC
CC
C0
C0
C0
C0
3C
3C
ENDCHAR
STARTCHAR Lslash
ENCODING 321
SWIDTH 750 0
DWIDTH 12 0
BBX 10 14 2 0
BITMAP
C300
C300
CC00
CC00
F000
F000
C000
C000
C000
C000
C000
C000
FFC0
FFC0
ENDCHAR
STARTCHAR lslash
ENCODING 322
SWIDTH 500 0
DWIDTH 8 0
BBX 6 16 2 0
BITMAP
C0
C0
C0
C0
CC
CC
F0
F0
C0
C0
C0
C0
C0
C0
3C
3C
ENDCHAR
STARTCHAR Nacute
ENCODING 323
SWIDTH 875 0
DWIDTH 14 0
BBX 10 20 2 0
BITMAP
0300
0300
0C00
0C00
0000
0000
C0C0
C0C0
C0C0
C0C0
F0C0
F0C0
CCC0
CCC0
C3C0
C3C0
C0C0
C0C0
C0C0
C0C0
ENDCHAR
STARTCHAR nacute
ENCODING 324
SWIDTH 875 0
DWIDTH 14 0
BBX 10 18 2 0
BITMAP
0300
0300
0C00
0C00
0000
0000
0000
0000
FF00
FF00
C0C0
C0C0
C0C0
C0C0
C0C0
C0C0
C0C0
C0C0
ENDCHAR
STARTCHAR Ncommaaccent
ENCODING 325
SWIDTH 875 0
DWIDTH 14 0
BBX 10 20 2 -6
BITMAP
C0C0
C0C0
C0C0
C0C0
F0C0
F0C0
CCC0
CCC0
C3C0
C3C0
C0C0
C0C0
C0C0
C0C0
0000
0000
0C00
0C00
F000
F000
ENDCHAR
STARTCHAR ncommaaccent
ENCODING 326
SWIDTH 875 0
DWIDTH 14 0
BBX 10 16 2 -6
BITMAP
FF00
FF00
C0C0
C0C0
C0C0
C0C0
C0C0
C0C0
C0C0
C0C0
0000
0000
0C00
0C00
F000
F000
ENDCHAR
STARTCHAR Ncaron
ENCODING 327
SWIDTH 875 0
DWIDTH 14 0
BBX 10 20 2 0
BITMAP
3300
3300
0C00
0C00
0000
0000
C0C0
C0C0
C0C0
C0C0
F0C0
F0C0
CCC0
CCC0
C3C0
C3C0
C0C0
C0C0
C0C0
C0C0
ENDCHAR
STARTCHAR ncaron
ENCODING 328
SWIDTH 875 0
DWIDTH 14 0
BBX 10 18 2 0
BITMAP
3300
3300
0C00
0C00
0000
0000
0000
0000
FF00
FF00
C0C0
C0C0
C0C0
C0C0
C0C0
C0C0
C0C0
C0C0
ENDCHAR
STARTCHAR napostrophe
ENCODING 329
SWIDTH 1000 0
DWIDTH 16 0
BBX 14 12 0 0
BITMAP
C000
C000
CFF0
CFF0
CC0C
CC0C
0C0C
0C0C
0C0C
0C0C
0C0C
0C0C
ENDCHAR
STARTCHAR Eng
ENCODING 330
SWIDTH 875 0
DWIDTH 14 0
BBX 10 18 2 -4
BITMAP
C0C0
C0C0
C0C0
C0C0
F0C0
F0C0
CCC0
CCC0
C3C0
C3C0
C0C0
C0C0
C0C0
C0C0
00C0
00C0
0F00
0F00
ENDCHAR
STARTCHAR eng
ENCODING 331
SWIDTH 875 0
DWIDTH 14 0
BBX 10 14 2 -4
BITMAP
FF00
FF00
C0C0
C0C0
C0C0
C0C0
C0C0
C0C0
C0C0
C0C0
00C0
00C0
0F00
0F00
ENDCHAR
STARTCHAR Omacron
ENCODING 332
SWIDTH 875 0
DWIDTH 14 0
BBX 10 18 2 0
BITMAP
3F00
3F00
0000
0000
3F00
3F00
C0C0
C0C0
C0C0
C0C0
C0C0
C0C0
C0C0
C0C0
C0C0
C0C0
3F00
3F00
ENDCHAR
STARTCHAR omacron
ENCODING 333
SWIDTH 875 0
DWIDTH 14 0
BBX 10 16 2 0
BITMAP
3F00
3F00
0000
0000
0000
0000
3F00
3F00
C0C0
C0C0
C0C0
C0C0
C0C0
C0C0
3F00
3F00
ENDCHAR
STARTCHAR Obreve
ENCODING 334
SWIDTH 875 0
DWIDTH 14 0
BBX 10 20 2 0
BITMAP
C0C0
C0C0
3F00
3F00
0000
0000
3F00
3F00
C0C0
C0C0
C0C0
C0C0
C0C0
C0C0
C0C0
C0C0
C0C0
C0C0
3F00
3F00
ENDCHAR
STARTCHAR obreve
ENCODING 335
SWIDTH 875 0
DWIDTH 14 0
BBX 10 18 2 0
BITMAP
C0C0
C0C0
3F00
3F00
0000
0000
0000
0000
3F00
3F00
C0C0
C0C0
C0C0
C0C0
C0C0
C0C0
3F00
3F00
ENDCHAR
STARTCHAR Ohungarumlaut
ENCODING 336
SWIDTH 875 0
DWIDTH 14 0
BBX 12 20 2 0
BITMAP
0C30
0C30
30C0
30C0
0000
0000
3F00
3F00
C0C0
C0C0
C0C0
C0C0
C0C0
C0C0
C0C0
C0C0
C0C0
C0C0
3F00
3F00
ENDCHAR
STARTCHAR ohungarumlaut
ENCODING 337
SWIDTH 875 0
DWIDTH 14 0
BBX 12 18 2 0
BITMAP
0C30
0C30
30C0
30C0
0000
0000
0000
0000
3F00
3F00
C0C0
C0C0
C0C0
C0C0
C0C0
C0C0
3F00
3F00
ENDCHAR
STARTCHAR OE
ENCODING 338
SWIDTH 1375 0
DWIDTH 22 0
BBX 18 14 2 0
BITMAP
3F3FC0
3F3FC0
C0C000
C0C000
C0C000
C0C000
C0FF00
C0FF00
C0C000
C0C000
C0C000
C0C000
3F3FC0
3F3FC0
ENDCHAR
STARTCHAR oe
ENCODING 339
SWIDTH 1375 0
DWIDTH 22 0
BBX 18 10 2 0
BITMAP
3F3F00
3F3F00
C0C0C0
C0C0C0
C0FFC0
C0FFC0
C0C000
C0C000
3F3FC0
3F3FC0
ENDCHAR
STARTCHAR Racute
ENCODING 340
SWIDTH 875 0
DWIDTH 14 0
BBX 10 20 2 0
BITMAP
0300
0300
0C00
0C00
0000
0000
FF00
FF00
C0C0
C0C0
C0C0
C0C0
FF00
FF00
CC00
CC00
C300
C300
C0C0
C0C0
ENDCHAR
STARTCHAR racute
ENCODING 341
SWIDTH 625 0
DWIDTH 10 0
BBX 8 18 2 0
BITMAP
0C
0C
30
30
00
00
00
00
CF
CF
F0
F0
C0
C0
C0
C0
C0
C0
ENDCHAR
STARTCHAR Rcommaaccent
ENCODING 342
SWIDTH 875 0
DWIDTH 14 0
BBX 10 20 2 -6
BITMAP
FF00
FF00
C0C0
C0C0
C0C0
C0C0
FF00
FF00
CC00
CC00
C300
C300
C0C0
C0C0
0000
0000
0C00
0C00
F000
F000
ENDCHAR
STARTCHAR rcommaaccent
ENCODING 343
SWIDTH 625 0
DWIDTH 10 0
BBX 10 16 0 -6
BITMAP
33C0
33C0
3C00
3C00
3000
3000
3000
3000
3000
3000
0000
0000
0C00
0C00
F000
F000
ENDCHAR
STARTCHAR Rcaron
ENCODING 344
SWIDTH 875 0
DWIDTH 14 0
BBX 10 20 2 0
BITMAP
3300
3300
0C00
0C00
0000
0000
FF00
FF00
C0C0
C0C0
C0C0
C0C0
FF00
FF00
CC00
CC00
C300
C300
C0C0
C0C0
ENDCHAR
STARTCHAR rcaron
ENCODING 345
SWIDTH 625 0
DWIDTH 10 0
BBX 8 18 2 0
BITMAP
CC
CC
30
30
00
00
00
00
CF
CF
F0
F0
C0
C0
C0
C0
C0
C0
ENDCHAR
STARTCHAR Sacute
ENCODING 346
SWIDTH 875 0
DWIDTH 14 0
BBX 10 20 2 0
BITMAP
0300
0300
0C00
0C00
0000
0000
3FC0
3FC0
C000
C000
C000
C000
3F00
3F00
00C0
00C0
00C0
00C0
FF00
FF00
ENDCHAR
STARTCHAR sacute
ENCODING 347
SWIDTH 750 0
DWIDTH 12 0
BBX 8 18 2 0
BITMAP
03
03
0C
0C
00
00
00
00
3F
3F
C0
C0
3C
3C
03
03
FC
FC
ENDCHAR
STARTCHAR Scircumflex
ENCODING 348
SWIDTH 875 0
DWIDTH 14 0
BBX 10 20 2 0
BITMAP
0C00
0C00
3300
3300
0000
0000
3FC0
3FC0
C000
C000
C000
C000
3F00
3F00
00C0
00C0
00C0
00C0
FF00
FF00
ENDCHAR
STARTCHAR scircumflex
ENCODING 349
SWIDTH 750 0
DWIDTH 12 0
BBX 8 18 2 0
BITMAP
0C
0C
33
33
00
00
00
00
3F
3F
C0
C0
3C
3C
03
03
FC
FC
ENDCHAR
STARTCHAR Scedilla
ENCODING 350
SWIDTH 875 0
DWIDTH 14 0
BBX 10 18 2 -4
BITMAP
3FC0
3FC0
C000
C000
C000
C000
3F00
3F00
00C0
00C0
00C0
00C0
FF00
FF00
0C00
0C00
F000
F000
ENDCHAR
STARTCHAR scedilla
ENCODING 351
SWIDTH 750 0
DWIDTH 12 0
BBX 8 14 2 -4
BITMAP
3F
3F
C0
C0
3C
3C
03
03
FC
FC
0C
0C
F0
F0
ENDCHAR
STARTCHAR Scaron
ENCODING 352
SWIDTH 875 0
DWIDTH 14 0
BBX 10 20 2 0
BITMAP
3300
3300
0C00
0C00
0000
0000
3FC0
3FC0
C000
C000
C000
C000
3F00
3F00
00C0
00C0
00C0
00C0
FF00
FF00
ENDCHAR
STARTCHAR scaron
ENCODING 353
SWIDTH 750 0
DWIDTH 12 0
BBX 8 18 2 0
BITMAP
33
33
0C
0C
00
00
00
00
3F
3F
C0
C0
3C
3C
03
03
FC
FC
ENDCHAR
STARTCHAR uni0162
ENCODING 354
SWIDTH 625 0
DWIDTH 10 0
BBX 10 18 0 -4
BITMAP
FFC0
FFC0
0C00
0C00
0C00
0C00
0C00
0C00
0C00
0C00
0C00
0C00
0C00
0C00
0C00
0C00
F000
F000
ENDCHAR
STARTCHAR uni0163
ENCODING 355
SWIDTH 750 0
DWIDTH 12 0
BBX 8 18 2 -4
BITMAP
C0
C0
C0
C0
FF
FF
C0
C0
C0
C0
C0
C0
3F
3F
0C
0C
F0
F0
ENDCHAR
STARTCHAR Tcaron
ENCODING 356
SWIDTH 625 0
DWIDTH 10 0
BBX 10 20 0 0
BITMAP
3300
3300
0C00
0C00
0000
0000
FFC0
FFC0
0C00
0C00
0C00
0C00
0C00
0C00
0C00
0C00
0C00
0C00
0C00
0C00
ENDCHAR
STARTCHAR tcaron
ENCODING 357
SWIDTH 875 0
DWIDTH 14 0
BBX 12 16 2 0
BITMAP
0030
0030
C030
C030
C030
C030
FF00
FF00
C000
C000
C000
C000
C000
C000
3F00
3F00
ENDCHAR
STARTCHAR Tbar
ENCODING 358
SWIDTH 625 0
DWIDTH 10 0
BBX 10 14 0 0
BITMAP
FFC0
FFC0
0C00
0C00
0C00
0C00
3F00
3F00
0C00
0C00
0C00
0C00
0C00
0C00
ENDCHAR
STARTCHAR tbar
ENCODING 359
SWIDTH 750 0
DWIDTH 12 0
BBX 10 14 0 0
BITMAP
3000
3000
3000
3000
3FC0
3FC0
3000
3000
FF00
FF00
3000
3000
0FC0
0FC0
ENDCHAR
STARTCHAR Utilde
ENCODING 360
SWIDTH 875 0
DWIDTH 14 0
BBX 10 20 2 0
BITMAP
3CC0
3CC0
CF00
CF00
0000
0000
C0C0
C0C0
C0C0
C0C0
C0C0
C0C0
C0C0
C0C0
C0C0
C0C0
C0C0
C0C0
3F00
3F00
ENDCHAR
STARTCHAR utilde
ENCODING 361
SWIDTH 875 0
DWIDTH 14 0
BBX 10 18 2 0
BITMAP
3CC0
3CC0
CF00
CF00
0000
0000
0000
0000
C0C0
C0C0
C0C0
C0C0
C0C0
C0C0
C0C0
C0C0
3FC0
3FC0
ENDCHAR
STARTCHAR Umacron
ENCODING 362
SWIDTH 875 0
DWIDTH 14 0
BBX 10 18 2 0
BITMAP
3F00
3F00
0000
0000
C0C0
C0C0
C0C0
C0C0
C0C0
C0C0
C0C0
C0C0
C0C0
C0C0
C0C0
C0C0
3F00
3F00
ENDCHAR
STARTCHAR umacron
ENCODING 363
SWIDTH 875 0
DWIDTH 14 0
BBX 10 16 2 0
BITMAP
3F00
3F00
0000
0000
0000
0000
C0C0
C0C0
C0C0
C0C0
C0C0
C0C0
C0C0
C0C0
3FC0
3FC0
ENDCHAR
STARTCHAR Ubreve
ENCODING 364
SWIDTH 875 0
DWIDTH 14 0
BBX 10 20 2 0
BITMAP
C0C0
C0C0
3F00
3F00
0000
0000
C0C0
C0C0
C0C0
C0C0
C0C0
C0C0
C0C0
C0C0
C0C0
C0C0
C0C0
C0C0
3F00
3F00
ENDCHAR
STARTCHAR ubreve
ENCODING 365
SWIDTH 875 0
DWIDTH 14 0
BBX 10 18 2 0
BITMAP
C0C0
C0C0
3F00
3F00
0000
0000
0000
0000
C0C0
C0C0
C0C0
C0C0
C0C0
C0C0
C0C0
C0C0
3FC0
3FC0
ENDCHAR
STARTCHAR Uring
ENCODING 366
SWIDTH 875 0
DWIDTH 14 0
BBX 10 20 2 0
BITMAP
0C00
0C00
3300
3300
0C00
0C00
C0C0
C0C0
C0C0
C0C0
C0C0
C0C0
C0C0
C0C0
C0C0
C0C0
C0C0
C0C0
3F00
3F00
ENDCHAR
STARTCHAR uring
ENCODING 367
SWIDTH 875 0
DWIDTH 14 0
BBX 10 18 2 0
BITMAP
0C00
0C00
3300
3300
0C00
0C00
0000
0000
C0C0
C0C0
C0C0
C0C0
C0C0
C0C0
C0C0
C0C0
3FC0
3FC0
ENDCHAR
STARTCHAR Uhungarumlaut
ENCODING 368
SWIDTH 875 0
DWIDTH 14 0
BBX 12 20 2 0
BITMAP
0C30
0C30
30C0
30C0
0000
0000
C0C0
C0C0
C0C0
C0C0
C0C0
C0C0
C0C0
C0C0
C0C0
C0C0
C0C0
C0C0
3F00
3F00
ENDCHAR
STARTCHAR uhungarumlaut
ENCODING 369
SWIDTH 875 0
DWIDTH 14 0
BBX 12 18 2 0
BITMAP
0C30
0C30
30C0
30C0
0000
0000
0000
0000
C0C0
C0C0
C0C0
C0C0
C0C0
C0C0
C0C0
C0C0
3FC0
3FC0
ENDCHAR
STARTCHAR Uogonek
ENCODING 370
SWIDTH 875 0
DWIDTH 14 0
BBX 10 18 2 -4
BITMAP
C0C0
C0C0
C0C0
C0C0
C0C0
C0C0
C0C0
C0C0
C0C0
C0C0
C0C0
C0C0
3F00
3F00
0C00
0C00
03C0
03C0
ENDCHAR
STARTCHAR uogonek
ENCODING 371
SWIDTH 875 0
DWIDTH 14 0
BBX 10 14 2 -4
BITMAP
C0C0
C0C0
C0C0
C0C0
C0C0
C0C0
C0C0
C0C0
3FC0
3FC0
0C00
0C00
03C0
03C0
ENDCHAR
STARTCHAR Wcircumflex
ENCODING 372
SWIDTH 1125 0
DWIDTH 18 0
BBX 14 20 2 0
BITMAP
0300
0300
0CC0
0CC0
0000
0000
C00C
C00C
C00C
C00C
C00C
C00C
C30C
C30C
CCCC
CCCC
F03C
F03C
C00C
C00C
ENDCHAR
STARTCHAR wcircumflex
ENCODING 373
SWIDTH 1125 0
DWIDTH 18 0
BBX 14 18 2 0
BITMAP
0300
0300
0CC0
0CC0
0000
0000
0000
0000
C00C
C00C
C30C
C30C
C30C
C30C
CCCC
CCCC
3030
3030
ENDCHAR
STARTCHAR Ycircumflex
ENCODING 374
SWIDTH 875 0
DWIDTH 14 0
BBX 10 20 2 0
BITMAP
0C00
0C00
3300
3300
0000
0000
C0C0
C0C0
C0C0
C0C0
3300
3300
0C00
0C00
0C00
0C00
0C00
0C00
0C00
0C00
ENDCHAR
STARTCHAR ycircumflex
ENCODING 375
SWIDTH 875 0
DWIDTH 14 0
BBX 12 22 0 -4
BITMAP
0300
0300
0CC0
0CC0
0000
0000
0000
0000
3030
3030
3030
3030
3030
3030
0CC0
0CC0
0300
0300
0C00
0C00
F000
F000
ENDCHAR
STARTCHAR Ydieresis
ENCODING 376
SWIDTH 875 0
DWIDTH 14 0
BBX 10 18 2 0
BITMAP
3300
3300
0000
0000
C0C0
C0C0
C0C0
C0C0
3300
3300
0C00
0C00
0C00
0C00
0C00
0C00
0C00
0C00
ENDCHAR
STARTCHAR Zacute
ENCODING 377
SWIDTH 875 0
DWIDTH 14 0
BBX 10 20 2 0
BITMAP
0300
0300
0C00
0C00
0000
0000
FFC0
FFC0
00C0
00C0
0300
0300
0C00
0C00
3000
3000
C000
C000
FFC0
FFC0
ENDCHAR
STARTCHAR zacute
ENCODING 378
SWIDTH 875 0
DWIDTH 14 0
BBX 10 18 2 0
BITMAP
0300
0300
0C00
0C00
0000
0000
0000
0000
FFC0
FFC0
0300
0300
0C00
0C00
3000
3000
FFC0
FFC0
ENDCHAR
STARTCHAR Zdotaccent
ENCODING 379
SWIDTH 875 0
DWIDTH 14 0
BBX 10 18 2 0
BITMAP
0C00
0C00
0000
0000
FFC0
FFC0
00C0
00C0
0300
0300
0C00
0C00
3000
3000
C000
C000
FFC0
FFC0
ENDCHAR
STARTCHAR zdotaccent
ENCODING 380
SWIDTH 875 0
DWIDTH 14 0
BBX 10 16 2 0
BITMAP
0C00
0C00
0000
0000
0000
0000
FFC0
FFC0
0300
0300
0C00
0C00
3000
3000
FFC0
FFC0
ENDCHAR
STARTCHAR Zcaron
ENCODING 381
SWIDTH 875 0
DWIDTH 14 0
BBX 10 20 2 0
BITMAP
3300
3300
0C00
0C00
0000
0000
FFC0
FFC0
00C0
00C0
0300
0300
0C00
0C00
3000
3000
C000
C000
FFC0
FFC0
ENDCHAR
STARTCHAR zcaron
ENCODING 382
SWIDTH 875 0
DWIDTH 14 0
BBX 10 18 2 0
BITMAP
3300
3300
0C00
0C00
0000
0000
0000
0000
FFC0
FFC0
0300
0300
0C00
0C00
3000
3000
FFC0
FFC0
ENDCHAR
STARTCHAR Schwa
ENCODING 399
SWIDTH 875 0
DWIDTH 14 0
BBX 10 14 2 0
BITMAP
FF00
FF00
00C0
00C0
00C0
00C0
FFC0
FFC0
C0C0
C0C0
C0C0
C0C0
3F00
3F00
ENDCHAR
STARTCHAR florin
ENCODING 402
SWIDTH 875 0
DWIDTH 14 0
BBX 12 20 2 -4
BITMAP
03F0
03F0
0C00
0C00
0C00
0C00
0C00
0C00
FFC0
FFC0
0C00
0C00
0C00
0C00
0C00
0C00
0C00
0C00
F000
F000
ENDCHAR
STARTCHAR Nhookleft
ENCODING 413
SWIDTH 875 0
DWIDTH 14 0
BBX 12 18 0 -4
BITMAP
3030
3030
3030
3030
3C30
3C30
3330
3330
30F0
30F0
3030
3030
3030
3030
3000
3000
C000
C000
ENDCHAR
STARTCHAR Gcaron
ENCODING 486
SWIDTH 875 0
DWIDTH 14 0
BBX 10 20 2 0
BITMAP
3300
3300
0C00
0C00
0000
0000
3FC0
3FC0
C000
C000
C000
C000
C000
C000
C3C0
C3C0
C0C0
C0C0
3F00
3F00
ENDCHAR
STARTCHAR gcaron
ENCODING 487
SWIDTH 875 0
DWIDTH 14 0
BBX 10 22 2 -4
BITMAP
3300
3300
0C00
0C00
0000
0000
0000
0000
3FC0
3FC0
C0C0
C0C0
C0C0
C0C0
C0C0
C0C0
3FC0
3FC0
00C0
00C0
FF00
FF00
ENDCHAR
STARTCHAR Oogonek
ENCODING 490
SWIDTH 875 0
DWIDTH 14 0
BBX 10 18 2 -4
BITMAP
3F00
3F00
C0C0
C0C0
C0C0
C0C0
C0C0
C0C0
C0C0
C0C0
C0C0
C0C0
3F00
3F00
0C00
0C00
03C0
03C0
ENDCHAR
STARTCHAR oogonek
ENCODING 491
SWIDTH 875 0
DWIDTH 14 0
BBX 10 14 2 -4
BITMAP
3F00
3F00
C0C0
C0C0
C0C0
C0C0
C0C0
C0C0
3F00
3F00
0C00
0C00
03C0
03C0
ENDCHAR
STARTCHAR Aringacute
ENCODING 506
SWIDTH 875 0
DWIDTH 14 0
BBX 10 20 2 0
BITMAP
0FC0
0FC0
3300
3300
0C00
0C00
0000
0000
3F00
3F00
C0C0
C0C0
C0C0
C0C0
FFC0
FFC0
C0C0
C0C0
C0C0
C0C0
ENDCHAR
STARTCHAR aringacute
ENCODING 507
SWIDTH 875 0
DWIDTH 14 0
BBX 10 20 2 0
BITMAP
00C0
00C0
0F00
0F00
3300
3300
0C00
0C00
0000
0000
3F00
3F00
00C0
00C0
3FC0
3FC0
C0C0
C0C0
3FC0
3FC0
ENDCHAR
STARTCHAR AEacute
ENCODING 508
SWIDTH 1375 0
DWIDTH 22 0
BBX 18 20 2 0
BITMAP
003000
003000
00C000
00C000
000000
000000
3FFFC0
3FFFC0
C0C000
C0C000
C0C000
C0C000
FFFF00
FFFF00
C0C000
C0C000
C0C000
C0C000
C0FFC0
C0FFC0
ENDCHAR
STARTCHAR aeacute
ENCODING 509
SWIDTH 1375 0
DWIDTH 22 0
BBX 18 18 2 0
BITMAP
003000
003000
00C000
00C000
000000
000000
000000
000000
3F3F00
3F3F00
00C0C0
00C0C0
3FFFC0
3FFFC0
C0C000
C0C000
3F3FC0
3F3FC0
ENDCHAR
STARTCHAR Oslashacute
ENCODING 510
SWIDTH 875 0
DWIDTH 14 0
BBX 10 20 2 0
BITMAP
0300
0300
0C00
0C00
0000
0000
3F00
3F00
C0C0
C0C0
C3C0
C3C0
CCC0
CCC0
F0C0
F0C0
C0C0
C0C0
3F00
3F00
ENDCHAR
STARTCHAR oslashacute
ENCODING 511
SWIDTH 875 0
DWIDTH 14 0
BBX 10 18 2 0
BITMAP
0300
0300
0C00
0C00
0000
0000
0000
0000
3F00
3F00
C3C0
C3C0
CCC0
CCC0
F0C0
F0C0
3F00
3F00
ENDCHAR
STARTCHAR Scommaaccent
ENCODING 536
SWIDTH 875 0
DWIDTH 14 0
BBX 10 20 2 -6
BITMAP
3FC0
3FC0
C000
C000
C000
C000
3F00
3F00
00C0
00C0
00C0
00C0
FF00
FF00
0000
0000
0C00
0C00
F000
F000
ENDCHAR
STARTCHAR scommaaccent
ENCODING 537
SWIDTH 750 0
DWIDTH 12 0
BBX 8 16 2 -6
BITMAP
3F
3F
C0
C0
3C
3C
03
03
FC
FC
00
00
0C
0C
F0
F0
ENDCHAR
STARTCHAR uni021A
ENCODING 538
SWIDTH 625 0
DWIDTH 10 0
BBX 10 20 0 -6
BITMAP
FFC0
FFC0
0C00
0C00
0C00
0C00
0C00
0C00
0C00
0C00
0C00
0C00
0C00
0C00
0000
0000
0C00
0C00
F000
F000
ENDCHAR
STARTCHAR uni021B
ENCODING 539
SWIDTH 750 0
DWIDTH 12 0
BBX 10 20 0 -6
BITMAP
3000
3000
3000
3000
3FC0
3FC0
3000
3000
3000
3000
3000
3000
0FC0
0FC0
0000
0000
0C00
0C00
F000
F000
ENDCHAR
STARTCHAR Ymacron
ENCODING 562
SWIDTH 875 0
DWIDTH 14 0
BBX 10 18 2 0
BITMAP
3F00
3F00
0000
0000
C0C0
C0C0
C0C0
C0C0
3300
3300
0C00
0C00
0C00
0C00
0C00
0C00
0C00
0C00
ENDCHAR
STARTCHAR ymacron
ENCODING 563
SWIDTH 875 0
DWIDTH 14 0
BBX 12 20 0 -4
BITMAP
0FC0
0FC0
0000
0000
0000
0000
3030
3030
3030
3030
3030
3030
0CC0
0CC0
0300
0300
0C00
0C00
F000
F000
ENDCHAR
STARTCHAR dotlessj
ENCODING 567
SWIDTH 375 0
DWIDTH 6 0
BBX 4 14 0 -4
BITMAP
30
30
30
30
30
30
30
30
30
30
30
30
C0
C0
ENDCHAR
STARTCHAR schwa
ENCODING 601
SWIDTH 875 0
DWIDTH 14 0
BBX 10 10 2 0
BITMAP
FF00
FF00
00C0
00C0
FFC0
FFC0
C0C0
C0C0
3F00
3F00
ENDCHAR
STARTCHAR nhookleft
ENCODING 626
SWIDTH 875 0
DWIDTH 14 0
BBX 12 14 0 -4
BITMAP
3FC0
3FC0
3030
3030
3030
3030
3030
3030
3030
3030
3000
3000
C000
C000
ENDCHAR
STARTCHAR circumflex
ENCODING 710
SWIDTH 625 0
DWIDTH 10 0
BBX 6 4 2 14
BITMAP
30
30
CC
CC
ENDCHAR
STARTCHAR caron
ENCODING 711
SWIDTH 625 0
DWIDTH 10 0
BBX 6 4 2 14
BITMAP
CC
CC
30
30
ENDCHAR
STARTCHAR uni02C9
ENCODING 713
SWIDTH 625 0
DWIDTH 10 0
BBX 6 2 2 14
BITMAP
FC
FC
ENDCHAR
STARTCHAR breve
ENCODING 728
SWIDTH 875 0
DWIDTH 14 0
BBX 10 4 2 14
BITMAP
C0C0
C0C0
3F00
3F00
ENDCHAR
STARTCHAR dotaccent
ENCODING 729
SWIDTH 375 0
DWIDTH 6 0
BBX 2 2 2 14
BITMAP
C0
C0
ENDCHAR
STARTCHAR ring
ENCODING 730
SWIDTH 625 0
DWIDTH 10 0
BBX 6 6 2 12
BITMAP
30
30
CC
CC
30
30
ENDCHAR
STARTCHAR ogonek
ENCODING 731
SWIDTH 625 0
DWIDTH 10 0
BBX 6 4 2 -4
BITMAP
C0
C0
3C
3C
ENDCHAR
STARTCHAR tilde
ENCODING 732
SWIDTH 875 0
DWIDTH 14 0
BBX 10 4 2 14
BITMAP
3CC0
3CC0
CF00
CF00
ENDCHAR
STARTCHAR hungarumlaut
ENCODING 733
SWIDTH 875 0
DWIDTH 14 0
BBX 10 4 2 14
BITMAP
30C0
30C0
C300
C300
ENDCHAR
STARTCHAR dotbelowcomb
ENCODING 803
SWIDTH 375 0
DWIDTH 6 0
BBX 2 2 2 -4
BITMAP
C0
C0
ENDCHAR
STARTCHAR Deltagreek
ENCODING 916
SWIDTH 875 0
DWIDTH 14 0
BBX 10 12 2 0
BITMAP
0C00
0C00
0C00
0C00
3300
3300
3300
3300
C0C0
C0C0
FFC0
FFC0
ENDCHAR
STARTCHAR Omegagreek
ENCODING 937
SWIDTH 875 0
DWIDTH 14 0
BBX 10 14 2 0
BITMAP
3F00
3F00
C0C0
C0C0
C0C0
C0C0
C0C0
C0C0
C0C0
C0C0
3300
3300
F3C0
F3C0
ENDCHAR
STARTCHAR mugreek
ENCODING 956
SWIDTH 875 0
DWIDTH 14 0
BBX 10 14 2 -4
BITMAP
C300
C300
C300
C300
C300
C300
C300
C300
FCC0
FCC0
C000
C000
C000
C000
ENDCHAR
STARTCHAR pi
ENCODING 960
SWIDTH 875 0
DWIDTH 14 0
BBX 10 10 2 0
BITMAP
FF00
FF00
C300
C300
C300
C300
C300
C300
C3C0
C3C0
ENDCHAR
STARTCHAR Wgrave
ENCODING 7808
SWIDTH 1125 0
DWIDTH 18 0
BBX 14 20 2 0
BITMAP
0C00
0C00
0300
0300
0000
0000
C00C
C00C
C00C
C00C
C00C
C00C
C30C
C30C
CCCC
CCCC
F03C
F03C
C00C
C00C
ENDCHAR
STARTCHAR wgrave
ENCODING 7809
SWIDTH 1125 0
DWIDTH 18 0
BBX 14 18 2 0
BITMAP
0C00
0C00
0300
0300
0000
0000
0000
0000
C00C
C00C
C30C
C30C
C30C
C30C
CCCC
CCCC
3030
3030
ENDCHAR
STARTCHAR Wacute
ENCODING 7810
SWIDTH 1125 0
DWIDTH 18 0
BBX 14 20 2 0
BITMAP
00C0
00C0
0300
0300
0000
0000
C00C
C00C
C00C
C00C
C00C
C00C
C30C
C30C
CCCC
CCCC
F03C
F03C
C00C
C00C
ENDCHAR
STARTCHAR wacute
ENCODING 7811
SWIDTH 1125 0
DWIDTH 18 0
BBX 14 18 2 0
BITMAP
00C0
00C0
0300
0300
0000
0000
0000
0000
C00C
C00C
C30C
C30C
C30C
C30C
CCCC
CCCC
3030
3030
ENDCHAR
STARTCHAR Wdieresis
ENCODING 7812
SWIDTH 1125 0
DWIDTH 18 0
BBX 14 18 2 0
BITMAP
0CC0
0CC0
0000
0000
C00C
C00C
C00C
C00C
C00C
C00C
C30C
C30C
CCCC
CCCC
F03C
F03C
C00C
C00C
ENDCHAR
STARTCHAR wdieresis
ENCODING 7813
SWIDTH 1125 0
DWIDTH 18 0
BBX 14 16 2 0
BITMAP
0CC0
0CC0
0000
0000
0000
0000
C00C
C00C
C30C
C30C
C30C
C30C
CCCC
CCCC
3030
3030
ENDCHAR
STARTCHAR uni1E9E
ENCODING 7838
SWIDTH 1000 0
DWIDTH 16 0
BBX 12 14 2 0
BITMAP
3FC0
3FC0
C0C0
C0C0
C300
C300
CFC0
CFC0
C030
C030
C030
C030
CFC0
CFC0
ENDCHAR
STARTCHAR Adotbelow
ENCODING 7840
SWIDTH 875 0
DWIDTH 14 0
BBX 10 18 2 -4
BITMAP
3F00
3F00
C0C0
C0C0
C0C0
C0C0
C0C0
C0C0
FFC0
FFC0
C0C0
C0C0
C0C0
C0C0
0000
0000
0C00
0C00
ENDCHAR
STARTCHAR adotbelow
ENCODING 7841
SWIDTH 875 0
DWIDTH 14 0
BBX 10 14 2 -4
BITMAP
3F00
3F00
00C0
00C0
3FC0
3FC0
C0C0
C0C0
3FC0
3FC0
0000
0000
0C00
0C00
ENDCHAR
STARTCHAR Edotbelow
ENCODING 7864
SWIDTH 875 0
DWIDTH 14 0
BBX 10 18 2 -4
BITMAP
FFC0
FFC0
C000
C000
C000
C000
FF00
FF00
C000
C000
C000
C000
FFC0
FFC0
0000
0000
0C00
0C00
ENDCHAR
STARTCHAR edotbelow
ENCODING 7865
SWIDTH 875 0
DWIDTH 14 0
BBX 10 14 2 -4
BITMAP
3F00
3F00
C0C0
C0C0
FFC0
FFC0
C000
C000
3FC0
3FC0
0000
0000
0C00
0C00
ENDCHAR
STARTCHAR Etilde
ENCODING 7868
SWIDTH 875 0
DWIDTH 14 0
BBX 10 20 2 0
BITMAP
3CC0
3CC0
CF00
CF00
0000
0000
FFC0
FFC0
C000
C000
C000
C000
FF00
FF00
C000
C000
C000
C000
FFC0
FFC0
ENDCHAR
STARTCHAR etilde
ENCODING 7869
SWIDTH 875 0
DWIDTH 14 0
BBX 10 18 2 0
BITMAP
3CC0
3CC0
CF00
CF00
0000
0000
0000
0000
3F00
3F00
C0C0
C0C0
FFC0
FFC0
C000
C000
3FC0
3FC0
ENDCHAR
STARTCHAR Idotbelow
ENCODING 7882
SWIDTH 625 0
DWIDTH 10 0
BBX 6 18 2 -4
BITMAP
FC
FC
30
30
30
30
30
30
30
30
30
30
FC
FC
00
00
30
30
ENDCHAR
STARTCHAR idotbelow
ENCODING 7883
SWIDTH 375 0
DWIDTH 6 0
BBX 2 20 2 -4
BITMAP
C0
C0
00
00
00
00
C0
C0
C0
C0
C0
C0
C0
C0
C0
C0
00
00
C0
C0
ENDCHAR
STARTCHAR Odotbelow
ENCODING 7884
SWIDTH 875 0
DWIDTH 14 0
BBX 10 18 2 -4
BITMAP
3F00
3F00
C0C0
C0C0
C0C0
C0C0
C0C0
C0C0
C0C0
C0C0
C0C0
C0C0
3F00
3F00
0000
0000
0C00
0C00
ENDCHAR
STARTCHAR odotbelow
ENCODING 7885
SWIDTH 875 0
DWIDTH 14 0
BBX 10 14 2 -4
BITMAP
3F00
3F00
C0C0
C0C0
C0C0
C0C0
C0C0
C0C0
3F00
3F00
0000
0000
0C00
0C00
ENDCHAR
STARTCHAR Udotbelow
ENCODING 7908
SWIDTH 875 0
DWIDTH 14 0
BBX 10 18 2 -4
BITMAP
C0C0
C0C0
C0C0
C0C0
C0C0
C0C0
C0C0
C0C0
C0C0
C0C0
C0C0
C0C0
3F00
3F00
0000
0000
0C00
0C00
ENDCHAR
STARTCHAR udotbelow
ENCODING 7909
SWIDTH 875 0
DWIDTH 14 0
BBX 10 14 2 -4
BITMAP
C0C0
C0C0
C0C0
C0C0
C0C0
C0C0
C0C0
C0C0
3FC0
3FC0
0000
0000
0C00
0C00
ENDCHAR
STARTCHAR Ygrave
ENCODING 7922
SWIDTH 875 0
DWIDTH 14 0
BBX 10 20 2 0
BITMAP
3000
3000
0C00
0C00
0000
0000
C0C0
C0C0
C0C0
C0C0
3300
3300
0C00
0C00
0C00
0C00
0C00
0C00
0C00
0C00
ENDCHAR
STARTCHAR ygrave
ENCODING 7923
SWIDTH 875 0
DWIDTH 14 0
BBX 12 22 0 -4
BITMAP
0C00
0C00
0300
0300
0000
0000
0000
0000
3030
3030
3030
3030
3030
3030
0CC0
0CC0
0300
0300
0C00
0C00
F000
F000
ENDCHAR
STARTCHAR Ytilde
ENCODING 7928
SWIDTH 875 0
DWIDTH 14 0
BBX 10 20 2 0
BITMAP
3CC0
3CC0
CF00
CF00
0000
0000
C0C0
C0C0
C0C0
C0C0
3300
3300
0C00
0C00
0C00
0C00
0C00
0C00
0C00
0C00
ENDCHAR
STARTCHAR ytilde
ENCODING 7929
SWIDTH 875 0
DWIDTH 14 0
BBX 12 22 0 -4
BITMAP
0F30
0F30
33C0
33C0
0000
0000
0000
0000
3030
3030
3030
3030
3030
3030
0CC0
0CC0
0300
0300
0C00
0C00
F000
F000
ENDCHAR
STARTCHAR endash
ENCODING 8211
SWIDTH 1125 0
DWIDTH 18 0
BBX 14 2 2 4
BITMAP
FFFC
FFFC
ENDCHAR
STARTCHAR emdash
ENCODING 8212
SWIDTH 1125 0
DWIDTH 18 0
BBX 18 2 0 4
BITMAP
FFFFC0
FFFFC0
ENDCHAR
STARTCHAR quoteleft
ENCODING 8216
SWIDTH 625 0
DWIDTH 10 0
BBX 6 6 2 10
BITMAP
3C
3C
C0
C0
C0
C0
ENDCHAR
STARTCHAR quoteright
ENCODING 8217
SWIDTH 625 0
DWIDTH 10 0
BBX 6 6 2 10
BITMAP
0C
0C
0C
0C
F0
F0
ENDCHAR
STARTCHAR quotesinglbase
ENCODING 8218
SWIDTH 625 0
DWIDTH 10 0
BBX 6 6 2 -2
BITMAP
0C
0C
0C
0C
F0
F0
ENDCHAR
STARTCHAR quotedblleft
ENCODING 8220
SWIDTH 1000 0
DWIDTH 16 0
BBX 12 6 2 10
BITMAP
3CF0
3CF0
C300
C300
C300
C300
ENDCHAR
STARTCHAR quotedblright
ENCODING 8221
SWIDTH 1000 0
DWIDTH 16 0
BBX 12 6 2 10
BITMAP
0C30
0C30
0C30
0C30
F3C0
F3C0
ENDCHAR
STARTCHAR quotedblbase
ENCODING 8222
SWIDTH 1000 0
DWIDTH 16 0
BBX 12 6 2 -2
BITMAP
0C30
0C30
0C30
0C30
F3C0
F3C0
ENDCHAR
STARTCHAR dagger
ENCODING 8224
SWIDTH 875 0
DWIDTH 14 0
BBX 10 18 2 -2
BITMAP
0C00
0C00
0C00
0C00
F3C0
F3C0
0C00
0C00
0000
0000
0C00
0C00
0C00
0C00
0C00
0C00
0C00
0C00
ENDCHAR
STARTCHAR daggerdbl
ENCODING 8225
SWIDTH 875 0
DWIDTH 14 0
BBX 10 18 2 -2
BITMAP
0C00
0C00
0C00
0C00
F3C0
F3C0
0C00
0C00
0C00
0C00
0C00
0C00
F3C0
F3C0
0C00
0C00
0C00
0C00
ENDCHAR
STARTCHAR bullet
ENCODING 8226
SWIDTH 1000 0
DWIDTH 16 0
BBX 8 6 4 2
BITMAP
FF
FF
FF
FF
FF
FF
ENDCHAR
STARTCHAR ellipsis
ENCODING 8230
SWIDTH 1250 0
DWIDTH 20 0
BBX 14 4 4 0
BITMAP
C30C
C30C
C30C
C30C
ENDCHAR
STARTCHAR perthousand
ENCODING 8240
SWIDTH 1750 0
DWIDTH 28 0
BBX 16 14 2 0
BITMAP
F0C0
F0C0
C0C0
C0C0
0300
0300
0C00
0C00
3000
3000
C0C3
C0C3
C3CF
C3CF
ENDCHAR
STARTCHAR guilsinglleft
ENCODING 8249
SWIDTH 625 0
DWIDTH 10 0
BBX 6 10 2 0
BITMAP
0C
0C
30
30
C0
C0
30
30
0C
0C
ENDCHAR
STARTCHAR guilsinglright
ENCODING 8250
SWIDTH 625 0
DWIDTH 10 0
BBX 6 10 2 0
BITMAP
C0
C0
30
30
0C
0C
30
30
C0
C0
ENDCHAR
STARTCHAR fraction
ENCODING 8260
SWIDTH 875 0
DWIDTH 14 0
BBX 10 14 2 0
BITMAP
00C0
00C0
00C0
00C0
0300
0300
0C00
0C00
3000
3000
C000
C000
C000
C000
ENDCHAR
STARTCHAR Euro
ENCODING 8364
SWIDTH 875 0
DWIDTH 14 0
BBX 12 14 0 0
BITMAP
03F0
03F0
0C00
0C00
0C00
0C00
FFC0
FFC0
0C00
0C00
0C00
0C00
03F0
03F0
ENDCHAR
STARTCHAR uni2113
ENCODING 8467
SWIDTH 750 0
DWIDTH 12 0
BBX 8 18 2 0
BITMAP
30
30
CC
CC
C3
C3
C3
C3
CC
CC
F0
F0
C0
C0
C3
C3
3C
3C
ENDCHAR
STARTCHAR uni2116
ENCODING 8470
SWIDTH 1500 0
DWIDTH 24 0
BBX 20 14 2 0
BITMAP
C0C3C0
C0C3C0
C0CC30
C0CC30
F0CC30
F0CC30
CCCC30
CCCC30
C3C3C0
C3C3C0
C0C000
C0C000
C0CFF0
C0CFF0
ENDCHAR
STARTCHAR trademark
ENCODING 8482
SWIDTH 1375 0
DWIDTH 22 0
BBX 18 8 2 6
BITMAP
FCC0C0
FCC0C0
30F3C0
30F3C0
30CCC0
30CCC0
30C0C0
30C0C0
ENDCHAR
STARTCHAR Omega
ENCODING 8486
SWIDTH 875 0
DWIDTH 14 0
BBX 10 14 2 0
BITMAP
3F00
3F00
C0C0
C0C0
C0C0
C0C0
C0C0
C0C0
C0C0
C0C0
3300
3300
F3C0
F3C0
ENDCHAR
STARTCHAR estimated
ENCODING 8494
SWIDTH 1375 0
DWIDTH 22 0
BBX 18 14 2 0
BITMAP
0FFC00
0FFC00
3C0F00
3C0F00
FC0FC0
FC0FC0
FFFFC0
FFFFC0
FC0000
FC0000
3C0300
3C0300
0FFC00
0FFC00
ENDCHAR
STARTCHAR partialdiff
ENCODING 8706
SWIDTH 875 0
DWIDTH 14 0
BBX 10 16 2 0
BITMAP
3000
3000
0C00
0C00
0300
0300
0CC0
0CC0
30C0
30C0
C0C0
C0C0
C0C0
C0C0
3F00
3F00
ENDCHAR
STARTCHAR Delta
ENCODING 8710
SWIDTH 875 0
DWIDTH 14 0
BBX 10 12 2 0
BITMAP
0C00
0C00
0C00
0C00
3300
3300
3300
3300
C0C0
C0C0
FFC0
FFC0
ENDCHAR
STARTCHAR product
ENCODING 8719
SWIDTH 875 0
DWIDTH 14 0
BBX 10 14 2 0
BITMAP
FFC0
FFC0
3300
3300
3300
3300
3300
3300
3300
3300
3300
3300
3300
3300
ENDCHAR
STARTCHAR summation
ENCODING 8721
SWIDTH 875 0
DWIDTH 14 0
BBX 10 14 2 0
BITMAP
FFC0
FFC0
C0C0
C0C0
3000
3000
0C00
0C00
3000
3000
C0C0
C0C0
FFC0
FFC0
ENDCHAR
STARTCHAR minus
ENCODING 8722
SWIDTH 875 0
DWIDTH 14 0
BBX 10 2 2 6
BITMAP
FFC0
FFC0
ENDCHAR
STARTCHAR uni2215
ENCODING 8725
SWIDTH 875 0
DWIDTH 14 0
BBX 6 14 4 0
BITMAP
0C
0C
0C
0C
0C
0C
30
30
C0
C0
C0
C0
C0
C0
ENDCHAR
STARTCHAR uni2219
ENCODING 8729
SWIDTH 1000 0
DWIDTH 16 0
BBX 8 6 4 2
BITMAP
FF
FF
FF
FF
FF
FF
ENDCHAR
STARTCHAR radical
ENCODING 8730
SWIDTH 875 0
DWIDTH 14 0
BBX 12 14 2 0
BITMAP
03F0
03F0
0300
0300
0300
0300
0C00
0C00
CC00
CC00
3000
3000
3000
3000
ENDCHAR
STARTCHAR infinity
ENCODING 8734
SWIDTH 875 0
DWIDTH 14 0
BBX 10 6 2 4
BITMAP
3300
3300
CCC0
CCC0
3300
3300
ENDCHAR
STARTCHAR integral
ENCODING 8747
SWIDTH 875 0
DWIDTH 14 0
BBX 14 20 0 -4
BITMAP
00FC
00FC
0300
0300
0300
0300
0300
0300
0300
0300
0300
0300
0300
0300
0300
0300
0300
0300
FC00
FC00
ENDCHAR
STARTCHAR approxequal
ENCODING 8776
SWIDTH 875 0
DWIDTH 14 0
BBX 10 10 2 2
BITMAP
3CC0
3CC0
C300
C300
0000
0000
30C0
30C0
CF00
CF00
ENDCHAR
STARTCHAR notequal
ENCODING 8800
SWIDTH 875 0
DWIDTH 14 0
BBX 10 10 2 2
BITMAP
0300
0300
FFC0
FFC0
0C00
0C00
FFC0
FFC0
3000
3000
ENDCHAR
STARTCHAR lessequal
ENCODING 8804
SWIDTH 875 0
DWIDTH 14 0
BBX 10 14 2 0
BITMAP
03C0
03C0
0C00
0C00
F000
F000
0C00
0C00
03C0
03C0
0000
0000
FFC0
FFC0
ENDCHAR
STARTCHAR greaterequal
ENCODING 8805
SWIDTH 875 0
DWIDTH 14 0
BBX 10 14 2 0
BITMAP
F000
F000
0C00
0C00
03C0
03C0
0C00
0C00
F000
F000
0000
0000
FFC0
FFC0
ENDCHAR
STARTCHAR lozenge
ENCODING 9674
SWIDTH 875 0
DWIDTH 14 0
BBX 10 10 2 2
BITMAP
0C00
0C00
3300
3300
C0C0
C0C0
3300
3300
0C00
0C00
ENDCHAR
STARTCHAR commaaccent
ENCODING 63171
SWIDTH 500 0
DWIDTH 8 0
BBX 6 4 0 -6
BITMAP
0C
0C
F0
F0
ENDCHAR
STARTCHAR uniF8FF
ENCODING 63743
SWIDTH 1750 0
DWIDTH 28 0
BBX 24 20 2 -4
BITMAP
0F3C00
0F3C00
30FFFC
30FFFC
00C003
00C003
3F3C0F
3F3C0F
FFFF00
FFFF00
FFFF00
FFFF00
FFFC00
FFFC00
3FC000
3FC000
0FCC00
0FCC00
03F000
03F000
ENDCHAR
STARTCHAR fi
ENCODING 64257
SWIDTH 1000 0
DWIDTH 16 0
BBX 14 16 0 0
BITMAP
03FC
03FC
0C00
0C00
0C00
0C00
FFFC
FFFC
0C0C
0C0C
0C0C
0C0C
0C0C
0C0C
0C0C
0C0C
ENDCHAR
STARTCHAR fl
ENCODING 64258
SWIDTH 1125 0
DWIDTH 18 0
BBX 18 16 0 0
BITMAP
03FC00
03FC00
0C0C00
0C0C00
0C0C00
0C0C00
FFCC00
FFCC00
0C0C00
0C0C00
0C0C00
0C0C00
0C0C00
0C0C00
0C03C0
0C03C0
ENDCHAR
STARTCHAR .notdef
ENCODING -1
SWIDTH 875 0
DWIDTH 14 0
BBX 10 14 2 0
BITMAP
FFC0
FFC0
C0C0
C0C0
C0C0
C0C0
C0C0
C0C0
C0C0
C0C0
C0C0
C0C0
FFC0
FFC0
ENDCHAR
STARTCHAR .null
ENCODING -1
SWIDTH 0 0
DWIDTH 0 0
BBX 1 1 0 0
BITMAP
00
ENDCHAR
STARTCHAR CR
ENCODING -1
SWIDTH 375 0
DWIDTH 6 0
BBX 1 1 0 0
BITMAP
00
ENDCHAR
STARTCHAR f_f
ENCODING -1
SWIDTH 1250 0
DWIDTH 20 0
BBX 22 16 0 0
BITMAP
03F0FC
03F0FC
0C0300
0C0300
0C0300
0C0300
FFFFF0
FFFFF0
0C0300
0C0300
0C0300
0C0300
0C0300
0C0300
0C0300
0C0300
ENDCHAR
STARTCHAR f_i
ENCODING -1
SWIDTH 1000 0
DWIDTH 16 0
BBX 14 16 0 0
BITMAP
03FC
03FC
0C00
0C00
0C00
0C00
FFCC
FFCC
0C0C
0C0C
0C0C
0C0C
0C0C
0C0C
0C0C
0C0C
ENDCHAR
STARTCHAR f_l
ENCODING -1
SWIDTH 1125 0
DWIDTH 18 0
BBX 18 16 0 0
BITMAP
03FC00
03FC00
0C0C00
0C0C00
0C0C00
0C0C00
FFCC00
FFCC00
0C0C00
0C0C00
0C0C00
0C0C00
0C0C00
0C0C00
0C03C0
0C03C0
ENDCHAR
STARTCHAR f_f_i
ENCODING -1
SWIDTH 1625 0
DWIDTH 26 0
BBX 24 16 0 0
BITMAP
03F0FF
03F0FF
0C0300
0C0300
0C0300
0C0300
FFFFF3
FFFFF3
0C0303
0C0303
0C0303
0C0303
0C0303
0C0303
0C0303
0C0303
ENDCHAR
STARTCHAR f_f_l
ENCODING -1
SWIDTH 1750 0
DWIDTH 28 0
BBX 28 16 0 0
BITMAP
03F0FF00
03F0FF00
0C030300
0C030300
0C030300
0C030300
FFFFF300
FFFFF300
0C030300
0C030300
0C030300
0C030300
0C030300
0C030300
0C0300F0
0C0300F0
ENDCHAR
STARTCHAR gravecap
ENCODING -1
SWIDTH 500 0
DWIDTH 8 0
BBX 4 4 2 14
BITMAP
C0
C0
30
30
ENDCHAR
STARTCHAR acutecap
ENCODING -1
SWIDTH 500 0
DWIDTH 8 0
BBX 4 4 2 14
BITMAP
30
30
C0
C0
ENDCHAR
STARTCHAR circumflexcap
ENCODING -1
SWIDTH 625 0
DWIDTH 10 0
BBX 6 4 2 14
BITMAP
30
30
CC
CC
ENDCHAR
STARTCHAR caroncap
ENCODING -1
SWIDTH 625 0
DWIDTH 10 0
BBX 6 4 2 14
BITMAP
CC
CC
30
30
ENDCHAR
STARTCHAR caronalt
ENCODING -1
SWIDTH 375 0
DWIDTH 6 0
BBX 2 6 2 10
BITMAP
C0
C0
C0
C0
C0
C0
ENDCHAR
STARTCHAR tildecap
ENCODING -1
SWIDTH 875 0
DWIDTH 14 0
BBX 10 4 2 14
BITMAP
3CC0
3CC0
CF00
CF00
ENDCHAR
STARTCHAR dieresiscap
ENCODING -1
SWIDTH 625 0
DWIDTH 10 0
BBX 6 2 2 14
BITMAP
CC
CC
ENDCHAR
STARTCHAR macroncap
ENCODING -1
SWIDTH 625 0
DWIDTH 10 0
BBX 6 2 2 14
BITMAP
FC
FC
ENDCHAR
STARTCHAR brevecap
ENCODING -1
SWIDTH 875 0
DWIDTH 14 0
BBX 10 4 2 14
BITMAP
C0C0
C0C0
3F00
3F00
ENDCHAR
STARTCHAR ringcap
ENCODING -1
SWIDTH 625 0
DWIDTH 10 0
BBX 6 6 2 12
BITMAP
30
30
CC
CC
30
30
ENDCHAR
STARTCHAR hungarumlautcap
ENCODING -1
SWIDTH 875 0
DWIDTH 14 0
BBX 10 4 2 14
BITMAP
30C0
30C0
C300
C300
ENDCHAR
STARTCHAR dotaccentcap
ENCODING -1
SWIDTH 375 0
DWIDTH 6 0
BBX 2 2 2 14
BITMAP
C0
C0
ENDCHAR
STARTCHAR commaaccentalt
ENCODING -1
SWIDTH 500 0
DWIDTH 8 0
BBX 6 4 2 12
BITMAP
3C
3C
C0
C0
ENDCHAR
STARTCHAR zeroslash
ENCODING -1
SWIDTH 875 0
DWIDTH 14 0
BBX 10 14 2 0
BITMAP
3F00
3F00
C0C0
C0C0
F0C0
F0C0
CCC0
CCC0
C3C0
C3C0
C0C0
C0C0
3F00
3F00
ENDCHAR
ENDFONT
